<?xml version="1.0" encoding="UTF-8" standalone="no"?>
<!-- Created with Inkscape (http://www.inkscape.org/) -->

<svg
   xmlns:dc="http://purl.org/dc/elements/1.1/"
   xmlns:cc="http://creativecommons.org/ns#"
   xmlns:rdf="http://www.w3.org/1999/02/22-rdf-syntax-ns#"
   xmlns:svg="http://www.w3.org/2000/svg"
   xmlns="http://www.w3.org/2000/svg"
   xmlns:sodipodi="http://sodipodi.sourceforge.net/DTD/sodipodi-0.dtd"
   xmlns:inkscape="http://www.inkscape.org/namespaces/inkscape"
   width="210mm"
   height="297mm"
   viewBox="0 0 210 297"
   version="1.1"
   id="svg1214"
   inkscape:version="0.92.4 (5da689c313, 2019-01-14)"
   sodipodi:docname="Simulation_Frequenzmessung.svg">
  <defs
     id="defs1208">
    <pattern
       y="0"
       x="0"
       height="6"
       width="6"
       patternUnits="userSpaceOnUse"
       id="EMFhbasepattern" />
    <pattern
       y="0"
       x="0"
       height="6"
       width="6"
       patternUnits="userSpaceOnUse"
       id="EMFhbasepattern-7" />
  </defs>
  <sodipodi:namedview
     id="base"
     pagecolor="#ffffff"
     bordercolor="#666666"
     borderopacity="1.0"
     inkscape:pageopacity="0.0"
     inkscape:pageshadow="2"
     inkscape:zoom="0.98994949"
     inkscape:cx="341.38487"
     inkscape:cy="774.49964"
     inkscape:document-units="mm"
     inkscape:current-layer="layer1"
     showgrid="false"
     inkscape:window-width="1920"
     inkscape:window-height="1001"
     inkscape:window-x="-9"
     inkscape:window-y="-9"
     inkscape:window-maximized="1" />
  <metadata
     id="metadata1211">
    <rdf:RDF>
      <cc:Work
         rdf:about="">
        <dc:format>image/svg+xml</dc:format>
        <dc:type
           rdf:resource="http://purl.org/dc/dcmitype/StillImage" />
        <dc:title />
      </cc:Work>
    </rdf:RDF>
  </metadata>
  <g
     inkscape:label="Layer 1"
     inkscape:groupmode="layer"
     id="layer1">
    <path
       id="path922"
       d="M 43.679828,32.599806 V 109.2118 H 175.78183 V 32.599806 Z"
       style="fill:#ffffff;fill-opacity:1;fill-rule:evenodd;stroke:none;stroke-width:0.26458332"
       inkscape:connector-curvature="0" />
    <path
       id="path924"
       d="M 43.679828,109.2118 H 175.78183"
       style="fill:none;stroke:#262626;stroke-width:0.14543751px;stroke-linecap:butt;stroke-linejoin:round;stroke-miterlimit:4;stroke-dasharray:none;stroke-opacity:1"
       inkscape:connector-curvature="0" />
    <path
       id="path926"
       d="M 43.679828,32.599806 H 175.78183"
       style="fill:none;stroke:#262626;stroke-width:0.14543751px;stroke-linecap:butt;stroke-linejoin:round;stroke-miterlimit:4;stroke-dasharray:none;stroke-opacity:1"
       inkscape:connector-curvature="0" />
    <path
       id="path928"
       d="m 64.343139,109.2118 v -1.32012"
       style="fill:none;stroke:#262626;stroke-width:0.14543751px;stroke-linecap:butt;stroke-linejoin:round;stroke-miterlimit:4;stroke-dasharray:none;stroke-opacity:1"
       inkscape:connector-curvature="0" />
    <path
       id="path930"
       d="m 98.073453,109.2118 v -1.32012"
       style="fill:none;stroke:#262626;stroke-width:0.14543751px;stroke-linecap:butt;stroke-linejoin:round;stroke-miterlimit:4;stroke-dasharray:none;stroke-opacity:1"
       inkscape:connector-curvature="0" />
    <path
       id="path932"
       d="m 131.79258,109.2118 v -1.32012"
       style="fill:none;stroke:#262626;stroke-width:0.14543751px;stroke-linecap:butt;stroke-linejoin:round;stroke-miterlimit:4;stroke-dasharray:none;stroke-opacity:1"
       inkscape:connector-curvature="0" />
    <path
       id="path934"
       d="m 165.52289,109.2118 v -1.32012"
       style="fill:none;stroke:#262626;stroke-width:0.14543751px;stroke-linecap:butt;stroke-linejoin:round;stroke-miterlimit:4;stroke-dasharray:none;stroke-opacity:1"
       inkscape:connector-curvature="0" />
    <path
       id="path936"
       d="m 64.343139,32.599806 v 1.331313"
       style="fill:none;stroke:#262626;stroke-width:0.14543751px;stroke-linecap:butt;stroke-linejoin:round;stroke-miterlimit:4;stroke-dasharray:none;stroke-opacity:1"
       inkscape:connector-curvature="0" />
    <path
       id="path938"
       d="m 98.073453,32.599806 v 1.331313"
       style="fill:none;stroke:#262626;stroke-width:0.14543751px;stroke-linecap:butt;stroke-linejoin:round;stroke-miterlimit:4;stroke-dasharray:none;stroke-opacity:1"
       inkscape:connector-curvature="0" />
    <path
       id="path940"
       d="m 131.79258,32.599806 v 1.331313"
       style="fill:none;stroke:#262626;stroke-width:0.14543751px;stroke-linecap:butt;stroke-linejoin:round;stroke-miterlimit:4;stroke-dasharray:none;stroke-opacity:1"
       inkscape:connector-curvature="0" />
    <path
       id="path942"
       d="m 165.52289,32.599806 v 1.331313"
       style="fill:none;stroke:#262626;stroke-width:0.14543751px;stroke-linecap:butt;stroke-linejoin:round;stroke-miterlimit:4;stroke-dasharray:none;stroke-opacity:1"
       inkscape:connector-curvature="0" />
    <text
       id="text948"
       y="112.79181"
       x="62.116829"
       style="font-style:normal;font-variant:normal;font-weight:400;font-size:3.0427084px;line-height:125%;font-family:'LM Roman 10';text-align:start;letter-spacing:0px;word-spacing:0px;text-anchor:start;fill:#000000;fill-opacity:1;stroke:none;stroke-width:0.26458332"
       xml:space="preserve"><tspan
         id="tspan946"
         y="112.79181"
         x="62.116829"
         sodipodi:role="line"
         style="stroke-width:0.26458332"><tspan
           id="tspan944"
           style="font-style:normal;font-variant:normal;font-weight:400;font-size:3.0427084px;font-family:'LM Roman 10';fill:#262626;stroke-width:0.26458332"
           dy="0"
           dx="0">200</tspan></tspan></text>
    <text
       id="text954"
       y="112.79181"
       x="95.94783"
       style="font-style:normal;font-variant:normal;font-weight:400;font-size:3.0427084px;line-height:125%;font-family:'LM Roman 10';text-align:start;letter-spacing:0px;word-spacing:0px;text-anchor:start;fill:#000000;fill-opacity:1;stroke:none;stroke-width:0.26458332"
       xml:space="preserve"><tspan
         id="tspan952"
         y="112.79181"
         x="95.94783"
         sodipodi:role="line"
         style="stroke-width:0.26458332"><tspan
           id="tspan950"
           style="font-style:normal;font-variant:normal;font-weight:400;font-size:3.0427084px;font-family:'LM Roman 10';fill:#262626;stroke-width:0.26458332"
           dy="0"
           dx="0">400</tspan></tspan></text>
    <text
       id="text960"
       y="112.79181"
       x="129.59982"
       style="font-style:normal;font-variant:normal;font-weight:400;font-size:3.0427084px;line-height:125%;font-family:'LM Roman 10';text-align:start;letter-spacing:0px;word-spacing:0px;text-anchor:start;fill:#000000;fill-opacity:1;stroke:none;stroke-width:0.26458332"
       xml:space="preserve"><tspan
         id="tspan958"
         y="112.79181"
         x="129.59982"
         sodipodi:role="line"
         style="stroke-width:0.26458332"><tspan
           id="tspan956"
           style="font-style:normal;font-variant:normal;font-weight:400;font-size:3.0427084px;font-family:'LM Roman 10';fill:#262626;stroke-width:0.26458332"
           dy="0"
           dx="0">800</tspan></tspan></text>
    <text
       id="text966"
       y="112.79181"
       x="162.53583"
       style="font-style:normal;font-variant:normal;font-weight:400;font-size:3.0427084px;line-height:125%;font-family:'LM Roman 10';text-align:start;letter-spacing:0px;word-spacing:0px;text-anchor:start;fill:#000000;fill-opacity:1;stroke:none;stroke-width:0.26458332"
       xml:space="preserve"><tspan
         id="tspan964"
         y="112.79181"
         x="162.53583"
         sodipodi:role="line"
         style="stroke-width:0.26458332"><tspan
           id="tspan962"
           style="font-style:normal;font-variant:normal;font-weight:400;font-size:3.0427084px;font-family:'LM Roman 10';fill:#262626;stroke-width:0.26458332"
           dy="0"
           dx="0">1600</tspan></tspan></text>
    <text
       id="text972"
       y="116.01381"
       x="99.706825"
       style="font-style:normal;font-variant:normal;font-weight:400;font-size:3.22460938px;line-height:125%;font-family:'LM Roman 10';text-align:start;letter-spacing:0px;word-spacing:0px;text-anchor:start;fill:#000000;fill-opacity:1;stroke:none;stroke-width:0.26458332"
       xml:space="preserve"><tspan
         id="tspan970"
         y="116.01381"
         x="99.706825"
         sodipodi:role="line"
         style="stroke-width:0.26458332"><tspan
           id="tspan968"
           style="font-style:normal;font-variant:normal;font-weight:400;font-size:3.22460938px;font-family:'LM Roman 10';fill:#262626;stroke-width:0.26458332"
           dy="0"
           dx="0">Frequenz [Hz]</tspan></tspan></text>
    <path
       id="path974"
       d="M 43.679828,109.2118 V 32.599806"
       style="fill:none;stroke:#262626;stroke-width:0.14543751px;stroke-linecap:butt;stroke-linejoin:round;stroke-miterlimit:4;stroke-dasharray:none;stroke-opacity:1"
       inkscape:connector-curvature="0" />
    <path
       id="path976"
       d="M 175.78183,109.2118 V 32.599806"
       style="fill:none;stroke:#262626;stroke-width:0.14543751px;stroke-linecap:butt;stroke-linejoin:round;stroke-miterlimit:4;stroke-dasharray:none;stroke-opacity:1"
       inkscape:connector-curvature="0" />
    <path
       id="path978"
       d="M 43.679828,109.2118 H 45.01114"
       style="fill:none;stroke:#262626;stroke-width:0.14543751px;stroke-linecap:butt;stroke-linejoin:round;stroke-miterlimit:4;stroke-dasharray:none;stroke-opacity:1"
       inkscape:connector-curvature="0" />
    <path
       id="path980"
       d="M 43.679828,101.55955 H 45.01114"
       style="fill:none;stroke:#262626;stroke-width:0.14543751px;stroke-linecap:butt;stroke-linejoin:round;stroke-miterlimit:4;stroke-dasharray:none;stroke-opacity:1"
       inkscape:connector-curvature="0" />
    <path
       id="path982"
       d="M 43.679828,93.896121 H 45.01114"
       style="fill:none;stroke:#262626;stroke-width:0.14543751px;stroke-linecap:butt;stroke-linejoin:round;stroke-miterlimit:4;stroke-dasharray:none;stroke-opacity:1"
       inkscape:connector-curvature="0" />
    <path
       id="path984"
       d="M 43.679828,86.232681 H 45.01114"
       style="fill:none;stroke:#262626;stroke-width:0.14543751px;stroke-linecap:butt;stroke-linejoin:round;stroke-miterlimit:4;stroke-dasharray:none;stroke-opacity:1"
       inkscape:connector-curvature="0" />
    <path
       id="path986"
       d="M 43.679828,78.569241 H 45.01114"
       style="fill:none;stroke:#262626;stroke-width:0.14543751px;stroke-linecap:butt;stroke-linejoin:round;stroke-miterlimit:4;stroke-dasharray:none;stroke-opacity:1"
       inkscape:connector-curvature="0" />
    <path
       id="path988"
       d="M 43.679828,70.905811 H 45.01114"
       style="fill:none;stroke:#262626;stroke-width:0.14543751px;stroke-linecap:butt;stroke-linejoin:round;stroke-miterlimit:4;stroke-dasharray:none;stroke-opacity:1"
       inkscape:connector-curvature="0" />
    <path
       id="path990"
       d="M 43.679828,63.253556 H 45.01114"
       style="fill:none;stroke:#262626;stroke-width:0.14543751px;stroke-linecap:butt;stroke-linejoin:round;stroke-miterlimit:4;stroke-dasharray:none;stroke-opacity:1"
       inkscape:connector-curvature="0" />
    <path
       id="path992"
       d="M 43.679828,55.590119 H 45.01114"
       style="fill:none;stroke:#262626;stroke-width:0.14543751px;stroke-linecap:butt;stroke-linejoin:round;stroke-miterlimit:4;stroke-dasharray:none;stroke-opacity:1"
       inkscape:connector-curvature="0" />
    <path
       id="path994"
       d="M 43.679828,47.926681 H 45.01114"
       style="fill:none;stroke:#262626;stroke-width:0.14543751px;stroke-linecap:butt;stroke-linejoin:round;stroke-miterlimit:4;stroke-dasharray:none;stroke-opacity:1"
       inkscape:connector-curvature="0" />
    <path
       id="path996"
       d="M 43.679828,40.263244 H 45.01114"
       style="fill:none;stroke:#262626;stroke-width:0.14543751px;stroke-linecap:butt;stroke-linejoin:round;stroke-miterlimit:4;stroke-dasharray:none;stroke-opacity:1"
       inkscape:connector-curvature="0" />
    <path
       id="path998"
       d="M 43.679828,32.599806 H 45.01114"
       style="fill:none;stroke:#262626;stroke-width:0.14543751px;stroke-linecap:butt;stroke-linejoin:round;stroke-miterlimit:4;stroke-dasharray:none;stroke-opacity:1"
       inkscape:connector-curvature="0" />
    <path
       id="path1000"
       d="m 175.78183,109.2118 h -1.32012"
       style="fill:none;stroke:#262626;stroke-width:0.14543751px;stroke-linecap:butt;stroke-linejoin:round;stroke-miterlimit:4;stroke-dasharray:none;stroke-opacity:1"
       inkscape:connector-curvature="0" />
    <path
       id="path1002"
       d="m 175.78183,101.55955 h -1.32012"
       style="fill:none;stroke:#262626;stroke-width:0.14543751px;stroke-linecap:butt;stroke-linejoin:round;stroke-miterlimit:4;stroke-dasharray:none;stroke-opacity:1"
       inkscape:connector-curvature="0" />
    <path
       id="path1004"
       d="m 175.78183,93.896121 h -1.32012"
       style="fill:none;stroke:#262626;stroke-width:0.14543751px;stroke-linecap:butt;stroke-linejoin:round;stroke-miterlimit:4;stroke-dasharray:none;stroke-opacity:1"
       inkscape:connector-curvature="0" />
    <path
       id="path1006"
       d="m 175.78183,86.232681 h -1.32012"
       style="fill:none;stroke:#262626;stroke-width:0.14543751px;stroke-linecap:butt;stroke-linejoin:round;stroke-miterlimit:4;stroke-dasharray:none;stroke-opacity:1"
       inkscape:connector-curvature="0" />
    <path
       id="path1008"
       d="m 175.78183,78.569241 h -1.32012"
       style="fill:none;stroke:#262626;stroke-width:0.14543751px;stroke-linecap:butt;stroke-linejoin:round;stroke-miterlimit:4;stroke-dasharray:none;stroke-opacity:1"
       inkscape:connector-curvature="0" />
    <path
       id="path1010"
       d="m 175.78183,70.905811 h -1.32012"
       style="fill:none;stroke:#262626;stroke-width:0.14543751px;stroke-linecap:butt;stroke-linejoin:round;stroke-miterlimit:4;stroke-dasharray:none;stroke-opacity:1"
       inkscape:connector-curvature="0" />
    <path
       id="path1012"
       d="m 175.78183,63.253556 h -1.32012"
       style="fill:none;stroke:#262626;stroke-width:0.14543751px;stroke-linecap:butt;stroke-linejoin:round;stroke-miterlimit:4;stroke-dasharray:none;stroke-opacity:1"
       inkscape:connector-curvature="0" />
    <path
       id="path1014"
       d="m 175.78183,55.590119 h -1.32012"
       style="fill:none;stroke:#262626;stroke-width:0.14543751px;stroke-linecap:butt;stroke-linejoin:round;stroke-miterlimit:4;stroke-dasharray:none;stroke-opacity:1"
       inkscape:connector-curvature="0" />
    <path
       id="path1016"
       d="m 175.78183,47.926681 h -1.32012"
       style="fill:none;stroke:#262626;stroke-width:0.14543751px;stroke-linecap:butt;stroke-linejoin:round;stroke-miterlimit:4;stroke-dasharray:none;stroke-opacity:1"
       inkscape:connector-curvature="0" />
    <path
       id="path1018"
       d="m 175.78183,40.263244 h -1.32012"
       style="fill:none;stroke:#262626;stroke-width:0.14543751px;stroke-linecap:butt;stroke-linejoin:round;stroke-miterlimit:4;stroke-dasharray:none;stroke-opacity:1"
       inkscape:connector-curvature="0" />
    <path
       id="path1020"
       d="m 175.78183,32.599806 h -1.32012"
       style="fill:none;stroke:#262626;stroke-width:0.14543751px;stroke-linecap:butt;stroke-linejoin:round;stroke-miterlimit:4;stroke-dasharray:none;stroke-opacity:1"
       inkscape:connector-curvature="0" />
    <text
       id="text1026"
       y="110.10681"
       x="40.815826"
       style="font-style:normal;font-variant:normal;font-weight:400;font-size:3.0427084px;line-height:125%;font-family:'LM Roman 10';text-align:start;letter-spacing:0px;word-spacing:0px;text-anchor:start;fill:#000000;fill-opacity:1;stroke:none;stroke-width:0.26458332"
       xml:space="preserve"><tspan
         id="tspan1024"
         y="110.10681"
         x="40.815826"
         sodipodi:role="line"
         style="stroke-width:0.26458332"><tspan
           id="tspan1022"
           style="font-style:normal;font-variant:normal;font-weight:400;font-size:3.0427084px;font-family:'LM Roman 10';fill:#262626;stroke-width:0.26458332"
           dy="0"
           dx="0">0</tspan></tspan></text>
    <text
       id="text1032"
       y="102.40981"
       x="38.488827"
       style="font-style:normal;font-variant:normal;font-weight:400;font-size:3.0427084px;line-height:125%;font-family:'LM Roman 10';text-align:start;letter-spacing:0px;word-spacing:0px;text-anchor:start;fill:#000000;fill-opacity:1;stroke:none;stroke-width:0.26458332"
       xml:space="preserve"><tspan
         id="tspan1030"
         y="102.40981"
         x="38.488827"
         sodipodi:role="line"
         style="stroke-width:0.26458332"><tspan
           id="tspan1028"
           style="font-style:normal;font-variant:normal;font-weight:400;font-size:3.0427084px;font-family:'LM Roman 10';fill:#262626;stroke-width:0.26458332"
           dy="0"
           dx="0">0.5</tspan></tspan></text>
    <text
       id="text1038"
       y="94.712807"
       x="40.815826"
       style="font-style:normal;font-variant:normal;font-weight:400;font-size:3.0427084px;line-height:125%;font-family:'LM Roman 10';text-align:start;letter-spacing:0px;word-spacing:0px;text-anchor:start;fill:#000000;fill-opacity:1;stroke:none;stroke-width:0.26458332"
       xml:space="preserve"><tspan
         id="tspan1036"
         y="94.712807"
         x="40.815826"
         sodipodi:role="line"
         style="stroke-width:0.26458332"><tspan
           id="tspan1034"
           style="font-style:normal;font-variant:normal;font-weight:400;font-size:3.0427084px;font-family:'LM Roman 10';fill:#262626;stroke-width:0.26458332"
           dy="0"
           dx="0">1</tspan></tspan></text>
    <text
       id="text1044"
       y="87.194817"
       x="38.488827"
       style="font-style:normal;font-variant:normal;font-weight:400;font-size:3.0427084px;line-height:125%;font-family:'LM Roman 10';text-align:start;letter-spacing:0px;word-spacing:0px;text-anchor:start;fill:#000000;fill-opacity:1;stroke:none;stroke-width:0.26458332"
       xml:space="preserve"><tspan
         id="tspan1042"
         y="87.194817"
         x="38.488827"
         sodipodi:role="line"
         style="stroke-width:0.26458332"><tspan
           id="tspan1040"
           style="font-style:normal;font-variant:normal;font-weight:400;font-size:3.0427084px;font-family:'LM Roman 10';fill:#262626;stroke-width:0.26458332"
           dy="0"
           dx="0">1.5</tspan></tspan></text>
    <text
       id="text1050"
       y="79.49781"
       x="40.815826"
       style="font-style:normal;font-variant:normal;font-weight:400;font-size:3.0427084px;line-height:125%;font-family:'LM Roman 10';text-align:start;letter-spacing:0px;word-spacing:0px;text-anchor:start;fill:#000000;fill-opacity:1;stroke:none;stroke-width:0.26458332"
       xml:space="preserve"><tspan
         id="tspan1048"
         y="79.49781"
         x="40.815826"
         sodipodi:role="line"
         style="stroke-width:0.26458332"><tspan
           id="tspan1046"
           style="font-style:normal;font-variant:normal;font-weight:400;font-size:3.0427084px;font-family:'LM Roman 10';fill:#262626;stroke-width:0.26458332"
           dy="0"
           dx="0">2</tspan></tspan></text>
    <text
       id="text1056"
       y="71.800812"
       x="38.488827"
       style="font-style:normal;font-variant:normal;font-weight:400;font-size:3.0427084px;line-height:125%;font-family:'LM Roman 10';text-align:start;letter-spacing:0px;word-spacing:0px;text-anchor:start;fill:#000000;fill-opacity:1;stroke:none;stroke-width:0.26458332"
       xml:space="preserve"><tspan
         id="tspan1054"
         y="71.800812"
         x="38.488827"
         sodipodi:role="line"
         style="stroke-width:0.26458332"><tspan
           id="tspan1052"
           style="font-style:normal;font-variant:normal;font-weight:400;font-size:3.0427084px;font-family:'LM Roman 10';fill:#262626;stroke-width:0.26458332"
           dy="0"
           dx="0">2.5</tspan></tspan></text>
    <text
       id="text1062"
       y="64.103813"
       x="40.815826"
       style="font-style:normal;font-variant:normal;font-weight:400;font-size:3.0427084px;line-height:125%;font-family:'LM Roman 10';text-align:start;letter-spacing:0px;word-spacing:0px;text-anchor:start;fill:#000000;fill-opacity:1;stroke:none;stroke-width:0.26458332"
       xml:space="preserve"><tspan
         id="tspan1060"
         y="64.103813"
         x="40.815826"
         sodipodi:role="line"
         style="stroke-width:0.26458332"><tspan
           id="tspan1058"
           style="font-style:normal;font-variant:normal;font-weight:400;font-size:3.0427084px;font-family:'LM Roman 10';fill:#262626;stroke-width:0.26458332"
           dy="0"
           dx="0">3</tspan></tspan></text>
    <text
       id="text1068"
       y="56.406803"
       x="38.488827"
       style="font-style:normal;font-variant:normal;font-weight:400;font-size:3.0427084px;line-height:125%;font-family:'LM Roman 10';text-align:start;letter-spacing:0px;word-spacing:0px;text-anchor:start;fill:#000000;fill-opacity:1;stroke:none;stroke-width:0.26458332"
       xml:space="preserve"><tspan
         id="tspan1066"
         y="56.406803"
         x="38.488827"
         sodipodi:role="line"
         style="stroke-width:0.26458332"><tspan
           id="tspan1064"
           style="font-style:normal;font-variant:normal;font-weight:400;font-size:3.0427084px;font-family:'LM Roman 10';fill:#262626;stroke-width:0.26458332"
           dy="0"
           dx="0">3.5</tspan></tspan></text>
    <text
       id="text1074"
       y="48.888805"
       x="40.815826"
       style="font-style:normal;font-variant:normal;font-weight:400;font-size:3.0427084px;line-height:125%;font-family:'LM Roman 10';text-align:start;letter-spacing:0px;word-spacing:0px;text-anchor:start;fill:#000000;fill-opacity:1;stroke:none;stroke-width:0.26458332"
       xml:space="preserve"><tspan
         id="tspan1072"
         y="48.888805"
         x="40.815826"
         sodipodi:role="line"
         style="stroke-width:0.26458332"><tspan
           id="tspan1070"
           style="font-style:normal;font-variant:normal;font-weight:400;font-size:3.0427084px;font-family:'LM Roman 10';fill:#262626;stroke-width:0.26458332"
           dy="0"
           dx="0">4</tspan></tspan></text>
    <text
       id="text1080"
       y="41.191799"
       x="38.488827"
       style="font-style:normal;font-variant:normal;font-weight:400;font-size:3.0427084px;line-height:125%;font-family:'LM Roman 10';text-align:start;letter-spacing:0px;word-spacing:0px;text-anchor:start;fill:#000000;fill-opacity:1;stroke:none;stroke-width:0.26458332"
       xml:space="preserve"><tspan
         id="tspan1078"
         y="41.191799"
         x="38.488827"
         sodipodi:role="line"
         style="stroke-width:0.26458332"><tspan
           id="tspan1076"
           style="font-style:normal;font-variant:normal;font-weight:400;font-size:3.0427084px;font-family:'LM Roman 10';fill:#262626;stroke-width:0.26458332"
           dy="0"
           dx="0">4.5</tspan></tspan></text>
    <text
       id="text1086"
       y="33.494808"
       x="40.815826"
       style="font-style:normal;font-variant:normal;font-weight:400;font-size:3.0427084px;line-height:125%;font-family:'LM Roman 10';text-align:start;letter-spacing:0px;word-spacing:0px;text-anchor:start;fill:#000000;fill-opacity:1;stroke:none;stroke-width:0.26458332"
       xml:space="preserve"><tspan
         id="tspan1084"
         y="33.494808"
         x="40.815826"
         sodipodi:role="line"
         style="stroke-width:0.26458332"><tspan
           id="tspan1082"
           style="font-style:normal;font-variant:normal;font-weight:400;font-size:3.0427084px;font-family:'LM Roman 10';fill:#262626;stroke-width:0.26458332"
           dy="0"
           dx="0">5</tspan></tspan></text>
    <text
       id="text1124"
       y="37.056828"
       x="-84.688812"
       transform="rotate(-90)"
       style="font-style:normal;font-variant:normal;font-weight:400;font-size:3.22460938px;line-height:125%;font-family:'LM Roman 10';text-align:start;letter-spacing:0px;word-spacing:0px;text-anchor:start;fill:#000000;fill-opacity:1;stroke:none;stroke-width:0.26458332"
       xml:space="preserve"><tspan
         id="tspan1122"
         y="37.056828"
         x="-84.688812"
         sodipodi:role="line"
         style="stroke-width:0.26458332"><tspan
           id="tspan1088"
           style="font-style:normal;font-variant:normal;font-weight:400;font-size:3.22460938px;font-family:'LM Roman 10';fill:#262626;stroke-width:0.26458332"
           dy="0"
           dx="0">A</tspan><tspan
           id="tspan1090"
           style="font-style:normal;font-variant:normal;font-weight:400;font-size:3.22460938px;font-family:'LM Roman 10';fill:#262626;stroke-width:0.26458332"
           dy="0"
           dx="0">b</tspan><tspan
           id="tspan1092"
           style="font-style:normal;font-variant:normal;font-weight:400;font-size:3.22460938px;font-family:'LM Roman 10';fill:#262626;stroke-width:0.26458332"
           dy="0"
           dx="0">w</tspan><tspan
           id="tspan1094"
           style="font-style:normal;font-variant:normal;font-weight:400;font-size:3.22460938px;font-family:'LM Roman 10';fill:#262626;stroke-width:0.26458332"
           dy="0"
           dx="0">e</tspan><tspan
           id="tspan1096"
           style="font-style:normal;font-variant:normal;font-weight:400;font-size:3.22460938px;font-family:'LM Roman 10';fill:#262626;stroke-width:0.26458332"
           dy="0"
           dx="0">i</tspan><tspan
           id="tspan1098"
           style="font-style:normal;font-variant:normal;font-weight:400;font-size:3.22460938px;font-family:'LM Roman 10';fill:#262626;stroke-width:0.26458332"
           dy="0"
           dx="0">c</tspan><tspan
           id="tspan1100"
           style="font-style:normal;font-variant:normal;font-weight:400;font-size:3.22460938px;font-family:'LM Roman 10';fill:#262626;stroke-width:0.26458332"
           dy="0"
           dx="0">h</tspan><tspan
           id="tspan1102"
           style="font-style:normal;font-variant:normal;font-weight:400;font-size:3.22460938px;font-family:'LM Roman 10';fill:#262626;stroke-width:0.26458332"
           dy="0"
           dx="0">u</tspan><tspan
           id="tspan1104"
           style="font-style:normal;font-variant:normal;font-weight:400;font-size:3.22460938px;font-family:'LM Roman 10';fill:#262626;stroke-width:0.26458332"
           dy="0"
           dx="0">n</tspan><tspan
           id="tspan1106"
           style="font-style:normal;font-variant:normal;font-weight:400;font-size:3.22460938px;font-family:'LM Roman 10';fill:#262626;stroke-width:0.26458332"
           dy="0"
           dx="0">g</tspan><tspan
           id="tspan1108"
           style="font-style:normal;font-variant:normal;font-weight:400;font-size:3.22460938px;font-family:'LM Roman 10';fill:#262626;stroke-width:0.26458332"
           dy="0"
           dx="0"> </tspan><tspan
           id="tspan1110"
           style="font-style:normal;font-variant:normal;font-weight:400;font-size:3.22460938px;font-family:'LM Roman 10';fill:#262626;stroke-width:0.26458332"
           dy="0"
           dx="0">[</tspan><tspan
           id="tspan1112"
           style="font-style:normal;font-variant:normal;font-weight:400;font-size:3.22460938px;font-family:'LM Roman 10';fill:#262626;stroke-width:0.26458332"
           dy="0"
           dx="0">C</tspan><tspan
           id="tspan1114"
           style="font-style:normal;font-variant:normal;font-weight:400;font-size:3.22460938px;font-family:'LM Roman 10';fill:#262626;stroke-width:0.26458332"
           dy="0"
           dx="0">e</tspan><tspan
           id="tspan1116"
           style="font-style:normal;font-variant:normal;font-weight:400;font-size:3.22460938px;font-family:'LM Roman 10';fill:#262626;stroke-width:0.26458332"
           dy="0"
           dx="0">n</tspan><tspan
           id="tspan1118"
           style="font-style:normal;font-variant:normal;font-weight:400;font-size:3.22460938px;font-family:'LM Roman 10';fill:#262626;stroke-width:0.26458332"
           dy="0"
           dx="0">t</tspan><tspan
           id="tspan1120"
           style="font-style:normal;font-variant:normal;font-weight:400;font-size:3.22460938px;font-family:'LM Roman 10';fill:#262626;stroke-width:0.26458332"
           dy="0"
           dx="0">]</tspan></tspan></text>
    <text
       id="text1130"
       y="31.525808"
       x="82.343826"
       style="font-style:normal;font-variant:normal;font-weight:700;font-size:3.22460938px;line-height:125%;font-family:'LM Roman 10';text-align:start;letter-spacing:0px;word-spacing:0px;text-anchor:start;fill:#000000;fill-opacity:1;stroke:none;stroke-width:0.26458332"
       xml:space="preserve"><tspan
         id="tspan1128"
         y="31.525808"
         x="82.343826"
         sodipodi:role="line"
         style="stroke-width:0.26458332"><tspan
           id="tspan1126"
           style="font-style:normal;font-variant:normal;font-weight:700;font-size:3.22460938px;font-family:'LM Roman 10';fill:#000000;stroke-width:0.26458332"
           dy="0"
           dx="0">Simulation der Frequenzmessung</tspan></tspan></text>
    <path
       id="path1132"
       d="m 43.668641,105.11718 0.0895,0.32444 0.369188,1.11875 0.369187,1.01806 0.369188,-1.99137 0.358,0.97331 0.358,1.06281 0.358,-1.81237 0.358,1.42081 0.346812,-1.37607 0.346813,2.03613 0.346812,-0.66006 0.346813,-3.36744 0.335625,3.43456 0.346813,-2.327 0.335625,1.47675 0.335625,-1.02925 0.324437,-0.31325 0.335625,0.48107 0.324438,-1.94663 0.324437,2.25988 0.324437,-0.0895 0.324438,-2.42769 0.31325,1.99137 0.324437,-0.2685 0.31325,0.90619 0.31325,-1.30893 0.302063,-0.0447 0.31325,1.28656 0.31325,-0.83906 0.302063,0.57056 0.302062,-1.49913 h 0.302063 l 0.302062,1.56625 0.290875,-0.41393 0.302063,1.23062 0.290875,-0.70481 0.290875,-2.65144 0.290874,2.83044 0.290875,0.97331 0.279688,-4.64281 0.290875,1.01806 0.279687,3.00944 0.290875,-2.5955 0.279688,-0.54819 0.279688,5.41475 0.2685,-4.04987 0.279687,2.01375 0.2685,-3.60238 0.279687,2.58431 0.2685,-3.02062 0.268501,3.28912 0.268499,-2.31581 0.268501,0.0783 0.268499,2.57312 0.257313,1.01807 0.268499,-0.537 0.257313,-2.08088 0.257312,0.537 0.257313,3.19963 0.257313,-2.45006 0.257312,-3.96038 0.257313,3.03181 0.246126,-2.65143 0.257312,0.17899 0.246124,3.06538 0.246126,1.71169 0.246126,-4.0275 0.257312,3.3115 0.234937,-2.40531 0.246123,-3.78138 0.246126,3.73662 0.234937,2.45007 0.246126,-3.3115 0.234937,4.37431 0.246126,-5.91819 0.234937,6.41044 0.234936,-3.938 0.23494,3.98275 0.234937,-6.45519 0.22375,6.18669 0.234937,-4.28481 0.234936,-0.85025 0.223751,2.685 0.22375,1.5215 0.234939,-4.37432 0.223748,3.97157 0.22375,-1.92425 0.22375,1.75643 0.22375,0.63769 0.22375,-0.46987 0.212564,-1.56625 0.22375,-2.67381 0.22375,6.07481 0.212561,0.11187 0.212564,-5.91819 0.22375,2.95351 0.212561,1.94662 0.212564,-4.10581 0.212561,-0.11188 0.212563,-1.12994 0.212564,-2.147989 0.212561,1.968999 0.201374,0.99568 0.212564,0.0224 0.212563,4.25125 0.201375,-1.90187 0.201374,-2.87519 0.212564,1.40963 0.201374,0.49225 0.201375,-0.4475 0.201374,-1.36488 0.201377,-2.30462 0.201374,2.148 0.201375,1.253 0.201374,0.38037 0.201377,-0.50344 0.190185,4.06107 0.201377,-7.730569 0.190188,2.338189 0.201374,1.49913 0.190188,0.67125 0.190188,-0.179 0.201374,-1.01807 0.190188,-1.85712 0.190188,2.94231 0.190188,2.148 0.190185,1.3425 0.190188,-5.14625 0.179001,5.4595 0.190188,-6.79081 0.190188,-1.857129 0.190187,3.143689 0.178999,-3.434559 0.190188,1.622189 0.178998,0.86143 0.179001,0.11188 0.190188,5.25813 0.178999,-7.294259 0.179001,3.803749 0.179001,-2.87518 0.178999,2.36056 0.179001,1.65575 0.178999,0.95094 0.179001,0.24612 0.178998,-0.45869 0.179002,-1.17468 0.178998,-1.8795 0.167815,-2.584319 0.178998,2.875189 0.179001,2.20394 0.167812,1.55506 0.167812,-5.35881 0.179002,0.20137 0.167812,-0.45868 0.167812,5.16862 0.179001,-1.76762 0.167812,3.91562 0.167812,-9.442249 0.167812,2.629059 0.167812,2.01376 0.167812,1.38725 0.167814,-5.683249 0.167812,6.611809 0.167812,-6.958629 0.156626,5.414749 0.167812,-1.7005 0.167812,-2.326999 0.156625,-2.94231 0.167812,3.054189 0.167815,2.48362 0.156622,-4.754689 0.156626,1.29775 0.167812,0.73838 0.156625,0.145439 0.156626,6.33212 0.167812,-7.741749 0.156625,5.213379 0.156625,-2.11444 0.156626,4.12819 0.156625,-3.24438 0.156626,3.043 0.156622,-4.37431 0.156626,1.969 0.156625,-5.504249 0.156625,0.88381 0.156626,0.34682 0.145436,-0.16782 0.156625,-0.716 0.156626,5.817499 0.145439,-1.74525 0.156622,4.82182 0.145439,-9.912129 0.156626,3.803749 0.145436,3.32269 0.156625,-4.351939 0.145439,2.315809 0.145436,1.83475 0.156626,1.35369 0.145436,-6.410439 0.145438,0.34681 0.145439,-0.13425 0.145436,6.723689 0.145439,-1.08519 0.145436,-1.56625 0.145439,-2.0585 0.145436,4.88894 0.145439,-3.00943 0.145436,3.98274 0.145439,-3.96037 0.145436,-4.441439 0.145439,2.606689 0.13425,2.17037 0.145436,1.72288 0.145439,-6.320939 0.134249,0.81669 0.145437,0.36919 0.145438,-0.0671 0.13425,-0.50344 0.145439,6.768439 0.134249,-1.37607 0.13425,-9.576499 0.145436,5.515439 0.134252,5.1015 0.13425,-3.12131 0.145436,-3.557629 0.13425,-4.00512 0.134249,3.45694 0.134252,3.054179 0.13425,2.65144 0.13425,-5.705619 0.145436,1.834749 0.134252,1.432 0.13425,1.04043 0.134249,0.64888 0.123063,0.23494 0.13425,-8.245189 0.134249,7.540369 0.13425,-0.95093 0.134249,-1.3425 0.134253,-1.756439 0.12306,6.063619 0.134252,-2.51718 0.13425,5.32525 0.12306,-11.567879 0.134252,4.575689 0.13425,4.22887 0.123063,-4.46381 0.13425,3.4905 0.123063,-5.246939 0.134249,2.774499 0.123063,-6.018869 0.123061,2.03612 0.134252,10.147069 0.12306,-7.13763 0.123063,0.97331 0.13425,0.61532 0.123063,0.2685 0.123063,-0.0895 0.123063,-0.4475 0.134249,-0.79431 0.123063,-1.15232 0.123061,7.17119 0.123063,-10.527439 0.123063,-2.21512 0.123063,6.175499 0.123063,5.85106 0.123063,-12.004189 0.12306,5.20219 0.123063,4.877749 0.123063,-13.111749 0.123063,4.22887 0.111874,3.91563 0.123063,-5.31406 0.123063,12.205559 0.123063,-5.96294 0.111874,2.65144 0.123063,-6.656559 0.123063,11.030869 0.111873,-7.31662 0.123063,-7.674629 0.123063,10.147069 0.111874,0.78312 0.123063,-8.670309 0.111877,9.285619 0.12306,-0.15662 0.111876,-0.45869 0.123061,-10.001619 0.11188,-1.10757 0.11187,7.853629 0.12306,7.58512 0.11188,-1.99137 0.12306,-2.29344 0.11188,-2.61787 0.11187,-2.919939 0.11188,6.175499 0.12306,-3.51288 0.11187,5.61613 0.11188,-4.117 0.11187,5.06794 0.11188,-14.219319 0.11187,4.48619 0.11188,4.217689 0.11187,-5.616129 0.11188,3.68069 0.11187,3.400999 0.11188,-6.499939 0.11187,2.85282 0.11188,2.584309 0.11187,-7.383749 0.11188,2.03612 0.11187,1.76763 0.11188,1.499119 0.11187,1.24182 0.11188,-8.849319 0.10068,10.527439 0.11188,0.4475 0.11188,-9.710749 0.11187,9.800249 0.10069,-0.358 0.11187,-10.572189 0.11188,9.073069 0.10069,-1.15232 0.11187,-1.420809 0.10069,-1.67813 0.11187,-1.94662 0.10069,7.875999 0.11188,-2.46125 0.11187,-2.718559 0.10069,7.171179 0.10069,-3.23318 0.11187,-3.490499 0.10069,-3.759 0.11187,6.209059 0.10069,-4.262439 0.10069,5.750379 0.11187,-4.777069 0.10069,-5.04556 0.10069,5.04556 0.11187,4.821819 0.10069,4.59806 0.10069,-6.04125 0.10069,4.13938 0.11187,-6.544689 0.10069,3.669499 0.10069,3.44575 0.10068,-7.294249 0.10069,2.987059 0.10069,2.76331 0.10069,2.53956 0.11187,-8.289929 0.10069,-8.55844 0.10069,1.83475 0.10068,1.611 0.10069,1.39844 0.10069,1.17468 0.10068,0.95094 0.10069,0.72719 0.0895,0.50344 0.10069,0.29087 0.10069,0.0671 0.10069,-0.15662 0.10069,-0.38038 0.10068,-0.59293 0.10069,10.102309 0.0895,-11.959439 0.10069,-1.26419 0.10068,9.509379 0.10069,-12.686629 0.0895,9.106629 0.10069,-2.125629 0.10069,-2.33819 0.0895,8.536069 0.10068,-13.894879 0.10069,8.1445 0.0895,-3.21081 0.10069,7.764129 0.10068,-3.624749 0.0895,-3.84851 0.10069,-4.07225 0.0895,6.99219 0.10069,-4.48618 0.0895,6.611809 0.10069,-4.911319 0.0895,6.231439 0.10068,-5.325249 0.0895,-5.549 0.10069,5.66088 0.0895,5.481869 0.0895,-6.175499 0.10069,5.112689 0.0895,-6.589439 0.0895,-6.81318 0.10068,16.098809 0.0895,-7.204749 0.0895,4.172929 0.10069,-7.629869 0.0895,3.80375 0.0895,3.635939 0.0895,-8.256379 0.10069,3.25557 0.0895,3.07656 0.0895,2.897559 0.0895,-9.073059 0.0895,2.51719 0.0895,2.34937 0.0895,-9.68838 0.10069,13.850129 0.0895,1.81237 0.0895,1.63338 0.0895,-10.482689 0.0895,1.26419 0.0895,1.08519 0.0895,0.90618 0.0895,0.72719 0.0895,0.54819 0.0895,0.38038 0.0895,0.20137 0.0895,0.0224 0.0895,-0.15662 0.0895,-0.33563 0.0783,-0.50343 0.0895,-0.69363 0.0895,-0.86144 0.0895,-1.04044 0.0895,-1.20825 0.0895,-1.39843 0.0895,10.751179 0.0783,-1.72287 0.0895,-14.275249 0.0895,10.2925 0.0895,-2.25987 0.0783,-2.42769 0.0895,9.833809 0.0895,-2.76331 0.0895,-2.942319 0.0783,-3.11012 0.0895,-3.30031 0.0895,9.095439 0.0783,-3.635939 0.0895,8.804559 0.0895,-16.591059 0.0783,8.5025 0.0895,-4.31838 0.0783,8.211629 0.0895,-4.653999 0.0783,-4.82182 0.0895,7.76413 0.0895,-5.14625 0.0783,-5.33644 0.0895,7.32781 0.0783,-5.66087 0.0895,7.02575 0.0783,6.902689 0.0783,-19.063499 0.0895,6.58944 0.0783,6.45518 0.0895,-6.65656 0.0783,6.1755 0.0895,-6.99219 0.0783,5.88463 0.0783,5.750369 0.0895,-7.473249 0.0783,5.459499 0.0783,-7.808869 0.0895,5.17981 0.0783,-8.1445 0.0783,4.88894 0.0783,-8.46894 0.0895,4.59806 0.0783,4.475 0.0783,4.329569 0.0783,-9.106629 0.0895,4.03869 0.0783,-9.44225 0.0783,17.139249 0.0783,-9.744319 0.0783,3.4905 0.0895,-10.09112 0.0783,16.680559 0.0783,-10.393179 0.0783,2.94231 0.0783,2.80806 0.0783,-10.88544 0.0783,16.098809 0.0783,-11.187489 0.0783,2.25987 0.0895,2.12563 0.0783,1.98018 0.0783,1.857129 0.0783,1.73406 0.0783,-12.149629 0.0783,15.192629 0.0783,-12.451689 0.0783,1.17469 0.0783,1.04044 0.0671,0.90618 0.0783,0.77194 0.0783,-13.246 0.0783,14.39831 0.0783,0.38038 0.0783,0.24612 0.0783,-13.87249 0.0783,13.95081 0.0783,-0.14544 0.0783,-0.29088 0.0671,-14.48781 0.0783,13.5145 0.0783,-0.68244 0.0783,-0.81668 0.0783,-0.95094 0.0671,-1.08519 0.0783,12.977499 0.0783,-15.550619 0.0783,-1.47675 0.0783,-1.62219 0.0671,-1.74525 0.0783,-1.8795 0.0783,12.32863 0.0671,-2.12563 0.0783,-2.25987 0.0783,-2.38294 0.0671,-2.52838 0.0783,-2.65143 0.0783,11.67974 0.0671,-2.89756 0.0783,11.478379 0.0783,-3.14369 0.0671,-3.266749 0.0783,-3.41219 0.0671,-3.53525 0.0783,10.941379 0.0783,-3.781379 0.0671,-3.91562 0.0783,-4.03869 0.0671,-4.18413 0.0783,10.41557 0.0671,-4.41907 0.0783,-4.5645 0.0671,10.11351 0.0783,-4.79944 0.0671,-4.93369 0.0783,9.80025 0.0671,-5.17981 0.0783,-5.30288 0.0671,9.487 0.0783,-5.549 0.0671,-5.69443 0.0783,9.18493 0.0671,-5.92937 0.0671,8.98356 0.0783,-6.1755 0.0671,8.782189 0.0671,-6.410439 0.0783,8.580809 0.0671,-6.656559 0.0783,8.379439 0.0671,-22.095309 0.0671,8.16687 0.0783,-7.17119 0.0671,7.9655 0.0671,7.876 0.0671,-7.52919 0.0783,7.67463 0.0671,-7.76413 0.0671,7.48444 0.0671,-8.01025 0.0783,-8.1445 0.0671,7.17119 0.0671,7.08169 0.0671,6.980999 0.0783,-8.603189 0.0671,-8.73744 0.0671,6.69013 0.0671,-8.98357 0.0671,6.47757 0.0783,6.38806 0.0671,6.309749 0.0671,-9.442249 0.0671,-9.5765 0.0671,5.98531 0.0671,5.907 0.0671,-9.92331 0.0671,5.70562 0.0783,5.61613 0.0671,5.526619 0.0671,-10.393179 0.0671,-10.52744 0.0671,5.21337 0.0671,5.13507 0.0671,-10.88544 0.0671,4.93369 0.0671,4.84418 0.0671,4.75469 0.0671,-11.34412 0.0671,4.55331 0.0671,4.475 0.0671,4.37431 0.0671,-11.814 0.0671,4.18413 0.0671,4.09462 0.0671,-12.172 0.0671,3.89325 0.0671,3.80375 0.0671,3.72544 0.0671,3.62475 0.0559,3.535249 0.0671,-12.843249 0.0671,3.33388 0.0671,3.25556 0.0671,-13.21244 0.0671,19.443879 0.0671,2.98706 0.0671,-13.536879 0.0559,2.78569 0.0671,-13.783 0.0671,19.09706 0.0671,2.517189 0.0671,-14.107439 0.0671,2.31581 0.0559,2.23751 0.0671,2.14799 0.0671,2.0585 0.0671,-14.68918 0.0671,18.537679 0.0559,-14.912929 0.0671,1.67812 0.0671,18.336309 0.0671,-15.237369 0.0559,1.42081 0.0671,1.32013 0.0671,1.24181 0.0559,-15.70725 0.0671,17.92237 0.0671,-15.931 0.0671,17.78813 0.0559,0.79431 0.0671,-16.25544 0.0671,17.586759 0.0559,-16.479189 0.0671,17.452499 0.0671,-16.702939 0.0559,17.318249 0.0671,-16.926689 0.0559,17.195189 0.0671,-17.150439 0.0671,17.060939 0.0559,-17.362999 0.0671,16.915499 0.0559,-17.586749 0.0671,16.792439 0.0671,-17.810499 0.0559,16.658179 0.0671,-18.023059 0.0559,16.52394 0.0671,-0.88381 0.0559,-18.36988 0.0671,16.33375 0.0559,-18.58244 0.0671,16.18832 0.0559,-1.32013 0.0671,-1.42081 0.0559,-1.49913 0.0671,15.942189 0.0559,-19.220119 0.0671,-1.76763 0.0559,15.752 0.0671,-19.55575 0.0559,15.61775 0.0671,-2.10325 0.0559,-19.89137 0.0671,15.42756 0.0559,-2.37175 0.0559,15.304499 0.0671,-20.305309 0.0559,-2.62907 0.0671,15.10313 0.0559,-2.78569 0.0559,14.991249 0.0671,-20.831119 0.0559,-3.05419 0.0559,14.80106 0.0671,-3.21081 0.0559,-3.28913 0.0671,-3.38981 0.0559,-3.46812 0.0559,14.48781 0.0671,-3.62475 0.0559,-3.72544 0.0559,14.308809 0.0559,-22.005809 0.0671,-3.98275 0.0559,14.11863 0.0559,-4.13938 0.0671,-4.21769 0.0559,13.92844 0.0559,-4.37431 0.0559,-4.475 0.0671,13.760619 0.0559,-4.620429 0.0559,-4.70994 0.0559,-4.79944 0.0671,13.514499 0.0559,-4.956059 0.0559,-23.49375 0.0559,13.31312 0.0671,-5.21337 0.0559,-5.31406 0.0559,13.14531 0.0559,-5.47069 0.0559,13.03344 0.0559,-5.61613 0.0671,12.910379 0.0559,-5.77275 0.0559,-5.862249 0.0559,-5.95175 0.0559,12.675439 0.0559,-6.097189 0.0671,-6.19787 0.0559,-6.28738 0.0559,12.4405 0.0559,-6.444 0.0559,-6.52231 0.0559,-6.623 0.0559,31.090059 0.0559,-6.746059 0.0559,-6.83557 0.0559,-6.92506 0.0559,11.97063 0.0671,-7.08169 0.0559,-7.17119 0.0559,11.79163 0.0559,-7.31663 0.0559,11.67975 0.0559,-7.48444 0.0559,-7.56275 0.0559,-7.65225 0.0559,11.43363 0.0559,11.40006 0.0559,-7.876 0.0559,-7.9655 0.0559,11.20988 0.0559,-8.11094 0.0559,11.098 0.0559,-8.26756 0.0559,10.986119 0.0559,-8.424179 0.0559,-8.51369 0.0559,-8.61438 0.0559,30.195059 0.0559,-8.726249 0.0559,-8.82693 0.0447,-8.91644 0.0559,10.52744 0.0559,-9.07306 0.0559,10.42674 0.0559,10.370819 0.0559,-9.285629 0.0559,-9.38631 0.0559,10.203 0.0559,-9.53175 0.0559,-9.63244 0.0559,29.758749 0.0448,-9.755499 0.0559,-9.845 0.0559,9.86738 0.0559,-10.00163 0.0559,9.7555 0.0559,-10.14706 0.0447,-10.24775 0.0559,9.5765 0.0559,9.54294 0.0559,9.486999 0.0559,-10.527439 0.0559,9.375119 0.0447,-10.684059 0.0559,-10.77356 0.0559,9.20731 0.0559,-10.94137 0.0559,9.09544 0.0447,-11.08682 0.0559,29.143439 0.0559,-11.221059 0.0559,8.894059 0.0447,-11.366499 0.0559,8.78219 0.0559,-11.52313 0.0559,8.67031 0.0448,-11.67974 0.0559,8.55843 0.0559,-11.83637 0.0559,8.45775 0.0448,-11.993 0.0559,8.33469 0.0559,-12.14963 0.0448,28.695939 0.0559,-12.272689 0.0559,8.13331 0.0559,-12.42931 0.0448,8.03263 0.0559,7.987869 0.0559,-12.653059 0.0447,7.876 0.0559,-12.80969 0.0559,7.76412 0.0447,-12.96631 0.0559,7.65225 0.0559,7.61869 0.0448,-13.19006 0.0559,7.49562 0.0448,7.46206 0.0559,-13.41381 0.0559,7.35019 0.0447,-13.55925 0.0559,7.22712 0.0559,7.19357 0.0448,-13.783 0.0559,7.08168 0.0448,7.03694 0.0559,-14.00675 0.0447,6.92506 0.0559,6.88032 0.0559,-14.2305 0.0447,6.77962 0.0559,6.72369 0.0447,-14.45425 0.0559,6.623 0.0448,6.56706 0.0559,6.52231 0.0448,-14.73393 0.0559,6.42162 0.0559,6.36569 0.0447,-14.95769 0.0559,6.265 0.0447,6.22025 0.0559,6.16431 0.0447,-15.23737 0.0559,6.06362 0.0447,6.01888 0.0559,5.962939 0.0448,-15.517069 0.0559,5.86225 0.0448,5.81751 0.0447,5.761559 0.0559,-15.807939 0.0447,-15.90862 0.0559,5.59374 0.0447,5.56019 0.0559,5.50425 0.0447,5.4595 0.0559,-16.25544 0.0447,5.35882 0.0559,5.30287 0.0447,5.26932 0.0448,5.21337 0.0559,-16.61344 0.0448,5.11269 0.0559,5.06794 0.0447,5.02318 0.0448,-16.90431 0.0559,4.91131 0.0447,4.86657 0.0559,-17.12807 0.0447,4.76588 0.0448,4.70994 0.0559,4.66518 0.0448,4.63163 0.0447,4.57569 0.0559,4.530939 0.0448,4.48618 0.0559,-17.665059 0.0447,-17.77694 0.0448,4.31838 0.0559,4.27362 0.0448,4.22888 0.0447,4.18412 0.0559,4.12819 0.0447,4.09462 0.0448,4.04988 0.0447,4.005129 0.0559,-18.381069 0.0447,3.89325 0.0447,3.8485 0.0559,3.80375 0.0448,3.759 0.0447,-18.73906 0.0559,3.64712 0.0447,3.61357 0.0448,-18.974 0.0447,3.50168 0.0559,3.45694 0.0447,3.401 0.0448,3.36744 0.0447,3.32269 0.0559,3.26675 0.0448,-19.44388 0.0447,3.16607 0.0447,3.12131 0.0559,3.07656 0.0447,3.03181 0.0448,2.98706 0.0447,2.94232 0.0559,-19.94732 0.0447,2.83044 0.0448,2.79688 0.0447,2.74093 0.0448,25.619379 0.0559,2.67381 0.0448,-20.327689 0.0447,2.57313 0.0448,2.51719 0.0447,2.47243 0.0447,2.43888 0.0559,2.38294 0.0448,-20.75282 0.0448,2.28226 0.0447,2.23749 0.0448,2.19276 0.0447,2.14799 0.0559,2.10325 0.0448,2.04732 0.0447,2.01375 0.0447,1.969 0.0448,1.92425 0.0447,1.8795 0.0448,-21.50238 0.0447,1.76763 0.0559,1.73406 0.0447,1.67813 0.0448,25.059999 0.0447,-21.826819 0.0448,1.54388 0.0447,1.51031 0.0448,1.45437 0.0447,1.42082 0.0448,-22.196 0.0447,1.29775 0.0559,24.881 0.0447,1.23062 0.0447,1.19707 0.0448,-22.52044 0.0447,1.08518 0.0448,1.04044 0.0447,24.735559 0.0448,0.97332 0.0447,-22.856059 0.0448,0.86143 0.0447,0.81669 0.0448,24.623689 0.0447,-23.113379 0.0448,0.68244 0.0447,0.64888 0.0448,0.59293 0.0447,0.54819 0.0447,0.51463 0.0448,0.45868 0.0447,0.42513 0.0448,0.38037 0.0447,0.32444 0.0448,0.29087 0.0447,0.24613 0.0448,0.20137 0.0447,0.14544 0.0448,0.11188 0.0447,0.0671 0.0448,0.0224 0.0447,-0.0224 0.0447,-0.0671 0.0448,-0.11188 0.0447,-0.14544 0.0448,-0.20137 0.0447,-0.24613 0.0448,-0.29087 0.0447,-0.32444 0.0448,-0.38037 0.0447,-0.42513 0.0448,-0.45868 0.0447,-0.51463 0.0448,-0.54819 0.0336,-0.59293 0.0447,-0.64888 0.0448,-0.68244 0.0447,-0.72718 0.0448,-0.78313 0.0447,23.829369 0.0448,-25.507489 0.0447,-0.90619 0.0448,23.762249 0.0447,-25.708879 0.0448,-1.04044 0.0336,23.69513 0.0447,-1.10756 0.0448,-25.97738 0.0447,-1.21944 0.0448,23.61682 0.0447,-26.17875 0.0448,23.56087 0.0336,-1.36487 0.0448,-1.42082 0.0447,-1.45437 0.0448,-1.51031 0.0448,-1.54388 0.0447,-1.59981 0.0448,-1.63337 0.0336,-1.67813 0.0448,23.381879 0.0447,-26.883569 0.0448,-1.81237 0.0447,23.31475 0.0448,-27.07375 0.0336,23.27 0.0447,-1.969 0.0448,-27.286317 0.0447,23.225247 0.0448,-2.10325 0.0336,-2.14799 0.0448,-2.19276 0.0447,-2.23749 0.0448,23.124559 0.0447,-27.722629 0.0336,23.06863 0.0447,-2.38294 0.0448,-27.924001 0.0447,23.012691 0.0336,-2.51719 0.0447,-2.57313 0.0448,-2.60668 0.0447,22.934369 0.0336,-28.293189 0.0447,-2.74093 0.0448,22.87843 0.0447,-28.50575 0.0336,22.84488 0.0447,-2.89756 0.0448,-2.94232 0.0447,-2.98706 0.0336,22.755379 0.0447,-28.863749 0.0447,-3.12131 0.0448,22.69943 0.0336,-29.076311 0.0447,22.654691 0.0448,-3.26675 0.0336,-3.32269 0.0448,-3.36744 0.0447,22.587569 0.0448,-29.445509 0.0336,22.54282 0.0448,-29.579753 0.0447,22.509253 0.0336,-3.61357 0.0447,-3.64712 0.0447,-3.69188 0.0336,22.43094 0.0447,-29.96012 0.0447,22.39737 0.0336,-3.8485 0.0447,-3.89325 0.0448,-3.938 0.0336,22.319069 0.0448,-30.340509 0.0447,22.2855 0.0336,-30.474745 0.0447,22.251935 0.0448,-4.18412 0.0336,-4.22888 0.0447,-4.27362 0.0448,22.17362 0.0336,-30.855123 0.0447,22.140063 0.0336,-4.43025 0.0447,-4.46381 0.0448,22.072939 0.0336,-31.157189 0.0447,22.05056 0.0448,-4.63163 0.0336,-4.66518 0.0448,-4.70994 0.0336,-4.76588 0.0448,-4.79943 0.0447,21.9275 0.0336,-4.86657 0.0448,-4.91131 0.0336,21.882749 0.0448,-31.839619 0.0336,21.838 0.0447,-31.985067 0.0448,21.804437 0.0336,21.793249 0.0448,-32.141689 0.0336,21.74851 0.0448,-32.29832 0.0336,21.72613 0.0448,21.692559 0.0447,-32.454939 0.0336,21.659 0.0448,-32.600374 0.0336,21.636624 0.0447,21.603059 0.0336,-32.756989 0.0447,21.5695 0.0336,-32.913632 0.0448,21.547132 0.0336,21.513559 0.0448,-33.070249 0.0336,21.49118 0.0448,-5.86225 0.0447,-5.91818 0.0336,21.435249 0.0447,-33.383499 0.0336,21.40168 0.0448,-6.06362 0.0336,-6.10838 0.0448,-6.15312 0.0336,21.33456 0.0447,-6.22025 0.0336,-6.265 0.0447,21.289809 0.0336,-33.94287 0.0336,21.245061 0.0447,-6.42162 0.0336,-6.45519 0.0447,21.18912 0.0336,-34.25612 0.0447,21.16675 0.0336,-6.623 0.0448,-6.65656 0.0336,21.11081 0.0448,-6.72369 0.0336,-6.77962 0.0447,-6.81319 0.0336,21.04369 0.0447,-6.88032 0.0336,-6.92506 0.0336,-6.96981 0.0447,20.97656 0.0336,-7.03694 0.0447,-7.08168 0.0336,20.93181 0.0447,-35.229439 0.0336,20.887059 0.0336,-7.22712 0.0447,-7.28306 0.0336,20.84231 0.0447,-7.35019 0.0336,20.819939 0.0336,-35.643369 0.0447,20.77518 0.0336,-7.49562 0.0447,-7.55157 0.0336,-7.585121 0.0448,20.708061 0.0336,-7.65225 0.0336,-7.697 0.0447,20.66331 0.0336,-7.76412 0.0336,-7.80887 0.0447,-7.86482 0.0336,20.60738 0.0447,-7.92075 0.0336,-7.9655 0.0336,-8.021441 0.0447,20.540251 0.0336,-8.07738 0.0336,-8.12212 0.0447,20.4955 0.0336,-8.18925 0.0336,20.461939 0.0447,-36.97469 0.0336,20.428381 0.0447,-8.33469 0.0336,20.39481 0.0336,-37.220815 0.0448,20.361255 0.0336,-8.5025 0.0336,20.33887 0.0448,-37.478123 0.0336,20.305313 0.0336,-8.64794 0.0447,20.27175 0.0336,-8.72625 0.0336,-8.75981 0.0336,20.227 0.0447,-8.82694 0.0336,20.193439 0.0336,-37.99275 0.0447,20.159871 0.0336,-8.98356 0.0336,20.1375 0.0448,-9.05068 0.0336,-9.09544 0.0336,-9.14019 0.0448,20.08156 0.0336,-9.20731 0.0336,20.03681 0.0336,-38.596873 0.0448,20.014443 0.0336,-9.36394 0.0336,19.99206 0.0336,-9.43106 0.0448,-9.47582 0.0336,-9.520559 0.0336,19.924939 0.0448,-9.5765 0.0336,19.89137 0.0336,-9.64362 0.0336,-9.69956 0.0447,-9.744316 0.0336,19.835436 0.0336,-9.80025 0.0336,19.80188 0.0447,-39.559003 0.0336,19.779503 0.0336,-9.968066 0.0336,19.745936 0.0447,-10.024 0.0336,19.71238 0.0336,-10.07994 0.0336,-10.14706 0.0336,-10.180628 0.0447,19.656438 0.0336,-10.24775 0.0336,19.63406 0.0336,-10.31487 0.0448,-10.35963 0.0336,-10.404373 0.0336,19.566943 0.0336,-10.47151 0.0336,19.54457 0.0448,-10.52744 0.0336,19.511 0.0336,-40.7225 0.0336,19.47744 0.0336,-10.684066 0.0447,19.455066 0.0336,-10.76238 0.0336,19.43269 0.0336,-10.81831 0.0336,19.399119 0.0336,-41.181186 0.0448,19.365567 0.0336,-10.97494 0.0336,19.34319 0.0336,-11.04207 0.0336,-11.08681 0.0336,19.29844 0.0448,-11.15394 0.0336,19.26488 0.0336,-41.718191 0.0336,19.242501 0.0336,-11.310565 0.0336,19.208935 0.0447,-11.37768 0.0336,19.18656 0.0336,-11.43363 0.0336,19.153 0.0336,-11.50075 0.0336,19.130629 0.0336,-42.277563 0.0448,19.097064 0.0336,-11.65737 0.0336,-11.724505 0.0336,19.063495 0.0336,-11.769247 0.0336,19.029937 0.0336,-11.83637 0.0336,19.00756 0.0336,-11.9035 0.0448,18.98519 0.0336,-11.97063 0.0336,18.951629 0.0336,-43.038314 0.0336,18.929255 0.0336,-12.12726 0.0336,-12.183183 0.0336,18.884503 0.0336,-12.239128 0.0447,18.862128 0.0336,-12.30625 0.0336,18.82856 0.0336,-12.36219 0.0336,18.80619 0.0336,-12.4405 0.0336,18.783809 0.0336,-12.496429 0.0336,-12.54119 0.0336,18.73906 0.0336,-12.60831 0.0336,-12.66425 0.0336,-12.709002 0.0448,18.683122 0.0336,-12.776125 0.0336,18.660755 0.0336,-12.83207 0.0336,-12.887996 0.0336,18.615996 0.0336,-12.943935 0.0336,18.593625 0.0336,-13.022249 0.0336,18.571249 0.0336,-13.07819 0.0336,18.54888 0.0336,-13.14531 0.0336,-13.190066 0.0336,18.504126 0.0336,-13.25719 0.0336,18.47056 0.0336,-13.31312 0.0336,18.44819 0.0336,-13.38025 0.0336,-13.436191 0.0336,18.414621 0.0336,-13.50331 0.0336,18.39225 0.0336,-13.57044 0.0336,18.36988 0.0336,-13.62638 0.0336,18.33632 0.0336,-13.6935 0.0336,-13.73825 0.0336,18.29156 0.0336,-13.80537 0.0336,18.28037 0.0336,-13.8725 0.0336,18.24681 0.0336,-13.92844 0.0336,-13.99556 0.0336,18.21325 0.0336,-14.0515 0.0336,18.19088 0.0336,-14.11863 0.0336,-14.163373 0.0336,18.146123 0.0336,-14.2305 0.0336,18.12375 0.0336,-14.28644 0.0336,18.09019 0.0336,-14.35356 0.0336,-14.409502 0.0336,18.056632 0.0336,-14.476632 0.0336,18.045442 0.0336,-14.54375 0.0336,18.01187 0.0336,-14.59969 0.0336,-14.65562 0.0336,17.96712 0.0336,-14.711559 0.0336,17.944749 0.0336,-14.778687 0.0224,-14.845812 0.0336,17.922379 0.0336,17.9 0.0336,17.899999 0.0336,-14.935309 0.0336,-14.98007 0.0336,17.85525 0.0336,-15.04719 0.0336,17.83288 0.0336,-15.10313 0.0336,-15.170245 0.0336,17.799315 0.0336,-15.226192 0.0336,17.765752 0.0224,-15.29331 0.0336,-15.338066 0.0336,17.732186 0.0336,-15.405186 0.0336,17.709816 0.0336,-15.483503 0.0336,17.698623 0.0336,17.67625 0.0336,-15.55062 0.0336,17.65387 0.0224,-15.61775 0.0336,-15.673687 0.0336,17.620317 0.0336,-15.740815 0.0336,17.597935 0.0336,-15.80794 0.0336,-15.852683 0.0336,17.564373 0.0336,-15.930999 0.0224,17.541999 0.0336,17.53081 0.0336,-15.99812 0.0336,17.49725 0.0336,-16.06525 0.0336,17.48606 0.0336,-16.13237 0.0224,-16.188317 0.0336,17.452497 0.0336,-16.255435 0.0336,17.430125 0.0336,-16.32256 0.0336,17.39656 0.0336,17.39656 0.0224,-16.40087 0.0336,-16.445626 0.0336,17.363006 0.0336,-16.512757 0.0336,17.329437 0.0336,-16.579872 0.0336,-16.635814 0.0224,17.295875 0.0336,17.284691 0.0336,17.284689 0.0336,-16.725319 0.0336,-16.78125 0.0224,17.23994 0.0336,-16.83719 0.0336,-16.904311 0.0336,17.217561 0.0336,-16.971436 0.0336,51.350625 0.0224,-16.982629 0.0336,-17.04975 0.0336,17.15044 0.0336,-17.10569 0.0336,-17.161621 0.0224,17.116871 0.0336,-17.228746 0.0336,51.440125 0.0336,-17.251129 0.0336,-17.30706 0.0224,17.06094 0.0336,-17.37419 0.0336,-17.430124 0.0336,17.027374 0.0336,17.02738 0.0224,17.004999 0.0336,-17.519629 0.0336,-17.575561 0.0336,16.982621 0.0336,-17.642682 0.0224,-17.698627 0.0336,16.949062 0.0336,16.926687 0.0336,16.92669 0.0224,-17.78813 0.0336,-17.844059 0.0336,16.893129 0.0336,-17.91119 0.0336,16.87075 0.0224,16.85956 0.0336,-17.9895 0.0336,-18.045437 0.0336,16.825997 0.0224,-18.112557 0.0336,16.814807 0.0336,16.79244 0.0336,-18.19087 0.0224,16.77006 0.0336,-18.258 0.0336,-18.313939 0.0336,16.747689 0.0224,16.72531 0.0336,-18.39225 0.0336,16.71413 0.0336,-18.45938 0.0224,-18.515311 0.0336,16.680563 0.0336,16.669378 0.0224,16.65818 0.0336,-18.60481 0.0336,-18.660748 0.0336,16.624628 0.0224,-18.739067 0.0336,16.613437 0.0336,16.59107 0.0336,-18.80619 0.0224,-18.862129 0.0336,16.557499 0.0336,16.5575 0.0224,-18.95162 0.0336,16.53512 0.0336,-19.007562 0.0336,-19.074686 0.0224,16.501563 0.0336,16.490375 0.0336,-19.141815 0.0224,16.468005 0.0336,-19.220129 0.0336,16.456809 0.0224,16.43444 0.0336,-19.29844 0.0336,16.42326 0.0336,-19.36557 0.0224,-19.421499 0.0336,52.212068 0.0336,-19.443879 0.0224,-19.499812 0.0336,16.356122 0.0336,-19.566936 0.0224,16.333746 0.0336,16.33376 0.0336,-19.64526 0.0224,-19.712371 0.0336,16.300191 0.0336,16.289 0.0224,-19.790692 0.0336,16.277812 0.0336,-19.857812 0.0224,-19.913749 0.0336,52.402251 0.0336,-19.93613 0.0224,-20.003245 0.0336,16.210685 0.0336,16.1995 0.0224,-20.07037 0.0336,16.17712 0.0336,-20.137499 0.0224,-20.204624 0.0336,52.514123 0.0336,-20.227 0.0224,-20.282937 0.0336,16.121187 0.0224,16.11 0.0336,-20.361248 0.0336,16.098808 0.0224,-20.439559 0.0336,-20.484312 0.0336,52.626001 0.0224,-20.51788 0.0336,-20.562621 0.0336,16.031691 0.0224,16.0205 0.0336,-20.652127 0.0224,16.009307 0.0336,-20.719245 0.0336,15.975745 0.0224,15.97575 0.0336,-20.79756 0.0224,-20.864686 0.0336,52.771435 0.0336,-20.887059 0.0224,-20.943001 0.0336,15.919811 0.0336,-21.010124 0.0224,15.897444 0.0336,15.88624 0.0224,-21.08843 0.0336,-21.155566 0.0336,52.883316 0.0224,-21.16675 0.0336,-21.233878 0.0224,15.830308 0.0336,15.81913 0.0336,-21.312189 0.0224,-21.368124 0.0336,52.972813 0.0224,-21.3905 0.0336,-21.457626 0.0224,15.763186 0.0336,15.76319 0.0336,-21.535939 0.0224,15.729629 0.0336,-21.603067 0.0224,15.718437 0.0336,15.70725 0.0336,-21.68137 0.0224,-21.748503 0.0336,53.118252 0.0224,-21.759689 0.0336,-21.838002 0.0224,15.662502 0.0336,15.64013 0.0336,-21.905132 0.0224,-21.972249 0.0336,53.207751 0.0224,-21.98344 0.0336,-22.061749 0.0224,15.595379 0.0336,15.58418 0.0224,-22.140058 0.0336,15.561818 0.0336,-22.207193 0.0224,15.550623 0.0336,15.52825 0.0224,-22.285499 0.0336,15.517069 0.0224,-22.35263 0.0336,15.49469 0.0224,-22.430941 0.0336,15.483499 0.0224,15.472312 0.0336,-22.520436 0.0224,15.449936 0.0336,15.44994 0.0336,-22.59875 0.0224,-22.654689 0.0336,53.498629 0.0224,-22.67707 0.0336,-22.732996 0.0224,15.394006 0.0336,15.38281 0.0224,-22.822504 0.0336,-22.889625 0.0224,53.599309 0.0336,-22.90081 0.0224,-22.967936 0.0336,53.632876 0.0224,-22.97913 0.0336,-23.057433 0.0224,15.304503 0.0336,15.29331 0.0224,-23.124565 0.0336,-23.202874 0.0224,53.744749 0.0336,-23.21406 0.0224,-23.281189 0.0336,53.767129 0.0224,-23.29238 0.0336,-23.359498 0.0224,15.214998 0.0336,15.20382 0.0224,-23.449005 0.0336,15.192625 0.0224,15.18144 0.0336,-23.527315 0.0224,15.159065 0.0336,15.15906 0.0224,-23.60562 0.0336,-23.672756 0.0224,15.1255 0.0336,15.114316 0.0224,-23.751067 0.0336,15.103127 0.0224,15.09194 0.0336,-23.840566 0.0224,15.069566 0.0336,-23.907691 0.0224,15.058381 0.0224,15.04718 0.0336,-23.997185 0.0224,15.035995 0.0336,15.02482 0.0224,-24.075503 0.0336,-24.142626 0.0224,54.147499 0.0336,-24.165 0.0224,-24.220936 0.0336,54.181065 0.0224,-24.243319 0.0224,-24.310434 0.0336,14.946504 0.0224,14.93531 0.0336,-24.388751 0.0224,14.912941 0.0336,14.92412 0.0224,-24.478249 0.0336,14.890559 0.0224,-24.556559 0.0224,14.890559 0.0336,14.86819 0.0224,-24.634875 0.0336,14.857005 0.0224,14.84581 0.0336,-24.724375 0.0224,-24.791501 0.0336,54.449566 0.0224,-24.80269 0.0224,-24.881001 0.0336,54.483131 0.0224,-24.89219 0.0336,-24.959316 0.0224,14.778689 0.0336,14.767497 0.0224,-25.048811 0.0224,14.756311 0.0336,-25.127123 0.0224,54.595003 0.0336,-25.13832 0.0224,-25.194246 0.0224,54.628565 0.0336,-25.227819 0.0224,-25.283746 0.0336,14.678 0.0224,14.678006 0.0224,-25.373256 0.0336,14.666816 0.0224,14.64444 0.0336,-25.451569 0.0224,14.633249 0.0224,-25.529873 0.0336,54.774002 0.0224,-25.552249 0.0336,-25.619378 0.0224,14.599688 0.0224,14.5885 0.0336,-25.708877 0.0224,14.577317 0.0336,14.55493 0.0224,-25.787183 0.0224,14.554943 0.0336,-25.876693 0.0224,54.941812 0.0336,-25.887879 0.0224,-25.943808 0.0224,14.499001 0.0336,14.498997 0.0224,-26.033311 0.0224,14.487811 0.0336,14.47663 0.0224,14.46543 0.0336,-26.134 0.0224,-26.201121 0.0224,55.098441 0.0336,-26.2235 0.0224,-26.279441 0.0224,14.420686 0.0336,14.409505 0.0224,14.4095 0.0224,-26.391315 0.0336,-26.447251 0.0224,55.221506 0.0336,-26.469631 0.0224,-26.53675 0.0224,14.353562 0.0336,14.353559 0.0224,14.34238 0.0224,-26.626251 0.0336,14.320001 0.0224,14.32 0.0224,-26.715752 0.0336,14.297622 0.0224,14.29763 0.0224,-26.805251 0.0336,14.286441 0.0224,-26.883566 0.0224,55.422875 0.0336,-26.905939 0.0224,-26.973061 0.0224,14.241689 0.0336,14.241692 0.0224,14.21931 0.0224,-27.062566 0.0336,-27.140875 0.0224,55.557121 0.0224,-27.152059 0.0336,-27.230374 0.0224,14.18575 0.0224,14.174562 0.0336,14.163381 0.0224,-27.319881 0.0224,14.152191 0.0336,14.141 0.0224,-27.409378 0.0224,14.129818 0.0336,14.11862 0.0224,14.11862 0.0224,-27.51006 0.0336,-27.577186 0.0224,55.769686 0.0224,-27.58837 0.0224,14.07387 0.0336,-27.677872 0.0224,14.062682 0.0224,14.0515 0.0336,-27.756182 0.0224,14.040312 0.0224,14.02912 0.0336,-27.845682 0.0224,14.017942 0.0224,-27.935194 0.0224,55.937504 0.0336,-27.93519 0.0224,13.98438 0.0224,-28.024693 0.0336,13.973193 0.0224,13.96199 0.0224,-28.114184 0.0224,13.950814 0.0336,13.93962 0.0224,-28.203683 0.0224,13.928433 0.0336,-28.281996 0.0224,56.116496 0.0224,-28.29318 0.0224,13.89487 0.0336,-28.382686 0.0224,13.883686 0.0224,13.88369 0.0336,-28.472189 0.0224,13.861319 0.0224,13.85012 0.0224,13.85012 0.0336,-28.56168 0.0224,-28.651191 0.0224,56.306691 0.0224,-28.651191 0.0336,13.805381 0.0224,-28.740694 0.0224,13.805375 0.0224,13.782999 0.0336,-28.818999 0.0224,13.771813 0.0224,-28.9085 0.0336,56.440936 0.0224,-28.930872 0.0224,13.749432 0.0224,-29.009184 0.0336,13.738249 0.0224,13.727065 0.0224,-29.109876 0.0224,13.715875 0.0336,13.704691 0.0224,13.70469 0.0224,-29.199382 0.0224,13.682312 0.0336,13.68231 0.0224,-29.288871 0.0224,13.659941 0.0224,-29.378378 0.0224,56.687068 0.0336,-29.38957 0.0224,13.63757 0.0224,-29.479069 0.0224,13.626376 0.0336,13.615183 0.0224,-29.568558 0.0224,13.603999 0.0224,-29.646874 0.0336,56.832503 0.0224,-29.669254 0.0224,13.581624 0.0224,-29.747561 0.0224,56.86606 0.0336,-29.758749 0.0224,-29.837061 0.0224,13.536874 0.0224,13.536877 0.0336,13.52569 0.0224,-29.937753 0.0224,13.5145 0.0224,-30.02725 0.0224,57.022693 0.0336,-30.038445 0.0224,13.480935 0.0224,-30.116746 0.0224,13.469749 0.0224,13.469757 0.0336,-30.217443 0.0224,13.447374 0.0224,13.447379 0.0224,13.43619 0.0224,-30.318131 0.0224,8.592"
       style="fill:none;stroke:#0072bd;stroke-width:0.14543751px;stroke-linecap:butt;stroke-linejoin:round;stroke-miterlimit:4;stroke-dasharray:none;stroke-opacity:1"
       inkscape:connector-curvature="0" />
  </g>
</svg>
