<?xml version="1.0" encoding="UTF-8" standalone="no"?>
<!-- Created with Inkscape (http://www.inkscape.org/) -->

<svg
   xmlns:dc="http://purl.org/dc/elements/1.1/"
   xmlns:cc="http://creativecommons.org/ns#"
   xmlns:rdf="http://www.w3.org/1999/02/22-rdf-syntax-ns#"
   xmlns:svg="http://www.w3.org/2000/svg"
   xmlns="http://www.w3.org/2000/svg"
   xmlns:sodipodi="http://sodipodi.sourceforge.net/DTD/sodipodi-0.dtd"
   xmlns:inkscape="http://www.inkscape.org/namespaces/inkscape"
   width="210mm"
   height="297mm"
   viewBox="0 0 210 297"
   version="1.1"
   id="svg1214"
   inkscape:version="0.92.4 (5da689c313, 2019-01-14)"
   sodipodi:docname="Simulation_Frequenzmessung.svg">
  <defs
     id="defs1208">
    <pattern
       y="0"
       x="0"
       height="6"
       width="6"
       patternUnits="userSpaceOnUse"
       id="EMFhbasepattern" />
  </defs>
  <sodipodi:namedview
     id="base"
     pagecolor="#ffffff"
     bordercolor="#666666"
     borderopacity="1.0"
     inkscape:pageopacity="0.0"
     inkscape:pageshadow="2"
     inkscape:zoom="1.4"
     inkscape:cx="282.83315"
     inkscape:cy="813.19634"
     inkscape:document-units="mm"
     inkscape:current-layer="layer1"
     showgrid="false"
     inkscape:window-width="1920"
     inkscape:window-height="1001"
     inkscape:window-x="-9"
     inkscape:window-y="-9"
     inkscape:window-maximized="1" />
  <metadata
     id="metadata1211">
    <rdf:RDF>
      <cc:Work
         rdf:about="">
        <dc:format>image/svg+xml</dc:format>
        <dc:type
           rdf:resource="http://purl.org/dc/dcmitype/StillImage" />
        <dc:title></dc:title>
      </cc:Work>
    </rdf:RDF>
  </metadata>
  <g
     inkscape:label="Layer 1"
     inkscape:groupmode="layer"
     id="layer1">
    <path
       id="path1762"
       d="M 46.115924,34.546405 V 127.76534 H 164.38201 V 34.546405 Z"
       style="fill:#ffffff;fill-opacity:1;fill-rule:evenodd;stroke:none;stroke-width:0.32193619"
       inkscape:connector-curvature="0" />
    <path
       id="path1764"
       d="M 46.115924,127.76534 H 164.38201"
       style="fill:none;stroke:#262626;stroke-width:0.17696354px;stroke-linecap:butt;stroke-linejoin:round;stroke-miterlimit:4;stroke-dasharray:none;stroke-opacity:1"
       inkscape:connector-curvature="0" />
    <path
       id="path1766"
       d="M 46.115924,34.546405 H 164.38201"
       style="fill:none;stroke:#262626;stroke-width:0.17696354px;stroke-linecap:butt;stroke-linejoin:round;stroke-miterlimit:4;stroke-dasharray:none;stroke-opacity:1"
       inkscape:connector-curvature="0" />
    <path
       id="path1768"
       d="m 64.615418,127.76534 v -1.17067"
       style="fill:none;stroke:#262626;stroke-width:0.17696354px;stroke-linecap:butt;stroke-linejoin:round;stroke-miterlimit:4;stroke-dasharray:none;stroke-opacity:1"
       inkscape:connector-curvature="0" />
    <path
       id="path1770"
       d="m 94.808118,127.76534 v -1.17067"
       style="fill:none;stroke:#262626;stroke-width:0.17696354px;stroke-linecap:butt;stroke-linejoin:round;stroke-miterlimit:4;stroke-dasharray:none;stroke-opacity:1"
       inkscape:connector-curvature="0" />
    <path
       id="path1772"
       d="m 125.00082,127.76534 v -1.17067"
       style="fill:none;stroke:#262626;stroke-width:0.17696354px;stroke-linecap:butt;stroke-linejoin:round;stroke-miterlimit:4;stroke-dasharray:none;stroke-opacity:1"
       inkscape:connector-curvature="0" />
    <path
       id="path1774"
       d="m 155.19352,127.76534 v -1.17067"
       style="fill:none;stroke:#262626;stroke-width:0.17696354px;stroke-linecap:butt;stroke-linejoin:round;stroke-miterlimit:4;stroke-dasharray:none;stroke-opacity:1"
       inkscape:connector-curvature="0" />
    <path
       id="path1776"
       d="m 64.615418,34.546405 v 1.184294"
       style="fill:none;stroke:#262626;stroke-width:0.17696354px;stroke-linecap:butt;stroke-linejoin:round;stroke-miterlimit:4;stroke-dasharray:none;stroke-opacity:1"
       inkscape:connector-curvature="0" />
    <path
       id="path1778"
       d="m 94.808118,34.546405 v 1.184294"
       style="fill:none;stroke:#262626;stroke-width:0.17696354px;stroke-linecap:butt;stroke-linejoin:round;stroke-miterlimit:4;stroke-dasharray:none;stroke-opacity:1"
       inkscape:connector-curvature="0" />
    <path
       id="path1780"
       d="m 125.00082,34.546405 v 1.184294"
       style="fill:none;stroke:#262626;stroke-width:0.17696354px;stroke-linecap:butt;stroke-linejoin:round;stroke-miterlimit:4;stroke-dasharray:none;stroke-opacity:1"
       inkscape:connector-curvature="0" />
    <path
       id="path1782"
       d="m 155.19352,34.546405 v 1.184294"
       style="fill:none;stroke:#262626;stroke-width:0.17696354px;stroke-linecap:butt;stroke-linejoin:round;stroke-miterlimit:4;stroke-dasharray:none;stroke-opacity:1"
       inkscape:connector-curvature="0" />
    <text
       id="text1788"
       y="132.12137"
       x="62.015419"
       style="font-style:normal;font-variant:normal;font-weight:400;font-size:3.70226645px;line-height:125%;font-family:'LM Roman 10';text-align:start;letter-spacing:0px;word-spacing:0px;text-anchor:start;fill:#000000;fill-opacity:1;stroke:none;stroke-width:0.32193619"
       xml:space="preserve"><tspan
         id="tspan1786"
         y="132.12137"
         x="62.015419"
         sodipodi:role="line"
         style="stroke-width:0.32193619"><tspan
           id="tspan1784"
           style="font-style:normal;font-variant:normal;font-weight:400;font-size:3.70226645px;font-family:'LM Roman 10';fill:#262626;stroke-width:0.32193619"
           dy="0"
           dx="0">200</tspan></tspan></text>
    <text
       id="text1794"
       y="132.12137"
       x="92.289787"
       style="font-style:normal;font-variant:normal;font-weight:400;font-size:3.70226645px;line-height:125%;font-family:'LM Roman 10';text-align:start;letter-spacing:0px;word-spacing:0px;text-anchor:start;fill:#000000;fill-opacity:1;stroke:none;stroke-width:0.32193619"
       xml:space="preserve"><tspan
         id="tspan1792"
         y="132.12137"
         x="92.289787"
         sodipodi:role="line"
         style="stroke-width:0.32193619"><tspan
           id="tspan1790"
           style="font-style:normal;font-variant:normal;font-weight:400;font-size:3.70226645px;font-family:'LM Roman 10';fill:#262626;stroke-width:0.32193619"
           dy="0"
           dx="0">400</tspan></tspan></text>
    <text
       id="text1800"
       y="132.12137"
       x="122.34637"
       style="font-style:normal;font-variant:normal;font-weight:400;font-size:3.70226645px;line-height:125%;font-family:'LM Roman 10';text-align:start;letter-spacing:0px;word-spacing:0px;text-anchor:start;fill:#000000;fill-opacity:1;stroke:none;stroke-width:0.32193619"
       xml:space="preserve"><tspan
         id="tspan1798"
         y="132.12137"
         x="122.34637"
         sodipodi:role="line"
         style="stroke-width:0.32193619"><tspan
           id="tspan1796"
           style="font-style:normal;font-variant:normal;font-weight:400;font-size:3.70226645px;font-family:'LM Roman 10';fill:#262626;stroke-width:0.32193619"
           dy="0"
           dx="0">800</tspan></tspan></text>
    <text
       id="text1806"
       y="132.12137"
       x="151.53172"
       style="font-style:normal;font-variant:normal;font-weight:400;font-size:3.70226645px;line-height:125%;font-family:'LM Roman 10';text-align:start;letter-spacing:0px;word-spacing:0px;text-anchor:start;fill:#000000;fill-opacity:1;stroke:none;stroke-width:0.32193619"
       xml:space="preserve"><tspan
         id="tspan1804"
         y="132.12137"
         x="151.53172"
         sodipodi:role="line"
         style="stroke-width:0.32193619"><tspan
           id="tspan1802"
           style="font-style:normal;font-variant:normal;font-weight:400;font-size:3.70226645px;font-family:'LM Roman 10';fill:#262626;stroke-width:0.32193619"
           dy="0"
           dx="0">1600</tspan></tspan></text>
    <text
       id="text1812"
       y="136.04179"
       x="93.160995"
       style="font-style:normal;font-variant:normal;font-weight:400;font-size:3.92359757px;line-height:125%;font-family:'LM Roman 10';text-align:start;letter-spacing:0px;word-spacing:0px;text-anchor:start;fill:#000000;fill-opacity:1;stroke:none;stroke-width:0.32193619"
       xml:space="preserve"><tspan
         id="tspan1810"
         y="136.04179"
         x="93.160995"
         sodipodi:role="line"
         style="stroke-width:0.32193619"><tspan
           id="tspan1808"
           style="font-style:normal;font-variant:normal;font-weight:400;font-size:3.92359757px;font-family:'LM Roman 10';fill:#262626;stroke-width:0.32193619"
           dy="0"
           dx="0">Frequenz [Hz]</tspan></tspan></text>
    <path
       id="path1814"
       d="M 46.115924,127.76534 V 34.546405"
       style="fill:none;stroke:#262626;stroke-width:0.17696354px;stroke-linecap:butt;stroke-linejoin:round;stroke-miterlimit:4;stroke-dasharray:none;stroke-opacity:1"
       inkscape:connector-curvature="0" />
    <path
       id="path1816"
       d="M 164.38201,127.76534 V 34.546405"
       style="fill:none;stroke:#262626;stroke-width:0.17696354px;stroke-linecap:butt;stroke-linejoin:round;stroke-miterlimit:4;stroke-dasharray:none;stroke-opacity:1"
       inkscape:connector-curvature="0" />
    <path
       id="path1818"
       d="m 46.115924,127.76534 h 1.184295"
       style="fill:none;stroke:#262626;stroke-width:0.17696354px;stroke-linecap:butt;stroke-linejoin:round;stroke-miterlimit:4;stroke-dasharray:none;stroke-opacity:1"
       inkscape:connector-curvature="0" />
    <path
       id="path1820"
       d="m 46.115924,118.45434 h 1.184295"
       style="fill:none;stroke:#262626;stroke-width:0.17696354px;stroke-linecap:butt;stroke-linejoin:round;stroke-miterlimit:4;stroke-dasharray:none;stroke-opacity:1"
       inkscape:connector-curvature="0" />
    <path
       id="path1822"
       d="m 46.115924,109.12972 h 1.184295"
       style="fill:none;stroke:#262626;stroke-width:0.17696354px;stroke-linecap:butt;stroke-linejoin:round;stroke-miterlimit:4;stroke-dasharray:none;stroke-opacity:1"
       inkscape:connector-curvature="0" />
    <path
       id="path1824"
       d="m 46.115924,99.80511 h 1.184295"
       style="fill:none;stroke:#262626;stroke-width:0.17696354px;stroke-linecap:butt;stroke-linejoin:round;stroke-miterlimit:4;stroke-dasharray:none;stroke-opacity:1"
       inkscape:connector-curvature="0" />
    <path
       id="path1826"
       d="m 46.115924,90.48049 h 1.184295"
       style="fill:none;stroke:#262626;stroke-width:0.17696354px;stroke-linecap:butt;stroke-linejoin:round;stroke-miterlimit:4;stroke-dasharray:none;stroke-opacity:1"
       inkscape:connector-curvature="0" />
    <path
       id="path1828"
       d="m 46.115924,81.155874 h 1.184295"
       style="fill:none;stroke:#262626;stroke-width:0.17696354px;stroke-linecap:butt;stroke-linejoin:round;stroke-miterlimit:4;stroke-dasharray:none;stroke-opacity:1"
       inkscape:connector-curvature="0" />
    <path
       id="path1830"
       d="m 46.115924,71.84487 h 1.184295"
       style="fill:none;stroke:#262626;stroke-width:0.17696354px;stroke-linecap:butt;stroke-linejoin:round;stroke-miterlimit:4;stroke-dasharray:none;stroke-opacity:1"
       inkscape:connector-curvature="0" />
    <path
       id="path1832"
       d="m 46.115924,62.520255 h 1.184295"
       style="fill:none;stroke:#262626;stroke-width:0.17696354px;stroke-linecap:butt;stroke-linejoin:round;stroke-miterlimit:4;stroke-dasharray:none;stroke-opacity:1"
       inkscape:connector-curvature="0" />
    <path
       id="path1834"
       d="m 46.115924,53.195638 h 1.184295"
       style="fill:none;stroke:#262626;stroke-width:0.17696354px;stroke-linecap:butt;stroke-linejoin:round;stroke-miterlimit:4;stroke-dasharray:none;stroke-opacity:1"
       inkscape:connector-curvature="0" />
    <path
       id="path1836"
       d="m 46.115924,43.871022 h 1.184295"
       style="fill:none;stroke:#262626;stroke-width:0.17696354px;stroke-linecap:butt;stroke-linejoin:round;stroke-miterlimit:4;stroke-dasharray:none;stroke-opacity:1"
       inkscape:connector-curvature="0" />
    <path
       id="path1838"
       d="m 46.115924,34.546405 h 1.184295"
       style="fill:none;stroke:#262626;stroke-width:0.17696354px;stroke-linecap:butt;stroke-linejoin:round;stroke-miterlimit:4;stroke-dasharray:none;stroke-opacity:1"
       inkscape:connector-curvature="0" />
    <path
       id="path1840"
       d="m 164.38201,127.76534 h -1.17068"
       style="fill:none;stroke:#262626;stroke-width:0.17696354px;stroke-linecap:butt;stroke-linejoin:round;stroke-miterlimit:4;stroke-dasharray:none;stroke-opacity:1"
       inkscape:connector-curvature="0" />
    <path
       id="path1842"
       d="m 164.38201,118.45434 h -1.17068"
       style="fill:none;stroke:#262626;stroke-width:0.17696354px;stroke-linecap:butt;stroke-linejoin:round;stroke-miterlimit:4;stroke-dasharray:none;stroke-opacity:1"
       inkscape:connector-curvature="0" />
    <path
       id="path1844"
       d="m 164.38201,109.12972 h -1.17068"
       style="fill:none;stroke:#262626;stroke-width:0.17696354px;stroke-linecap:butt;stroke-linejoin:round;stroke-miterlimit:4;stroke-dasharray:none;stroke-opacity:1"
       inkscape:connector-curvature="0" />
    <path
       id="path1846"
       d="m 164.38201,99.80511 h -1.17068"
       style="fill:none;stroke:#262626;stroke-width:0.17696354px;stroke-linecap:butt;stroke-linejoin:round;stroke-miterlimit:4;stroke-dasharray:none;stroke-opacity:1"
       inkscape:connector-curvature="0" />
    <path
       id="path1848"
       d="m 164.38201,90.48049 h -1.17068"
       style="fill:none;stroke:#262626;stroke-width:0.17696354px;stroke-linecap:butt;stroke-linejoin:round;stroke-miterlimit:4;stroke-dasharray:none;stroke-opacity:1"
       inkscape:connector-curvature="0" />
    <path
       id="path1850"
       d="m 164.38201,81.155874 h -1.17068"
       style="fill:none;stroke:#262626;stroke-width:0.17696354px;stroke-linecap:butt;stroke-linejoin:round;stroke-miterlimit:4;stroke-dasharray:none;stroke-opacity:1"
       inkscape:connector-curvature="0" />
    <path
       id="path1852"
       d="m 164.38201,71.84487 h -1.17068"
       style="fill:none;stroke:#262626;stroke-width:0.17696354px;stroke-linecap:butt;stroke-linejoin:round;stroke-miterlimit:4;stroke-dasharray:none;stroke-opacity:1"
       inkscape:connector-curvature="0" />
    <path
       id="path1854"
       d="m 164.38201,62.520255 h -1.17068"
       style="fill:none;stroke:#262626;stroke-width:0.17696354px;stroke-linecap:butt;stroke-linejoin:round;stroke-miterlimit:4;stroke-dasharray:none;stroke-opacity:1"
       inkscape:connector-curvature="0" />
    <path
       id="path1856"
       d="m 164.38201,53.195638 h -1.17068"
       style="fill:none;stroke:#262626;stroke-width:0.17696354px;stroke-linecap:butt;stroke-linejoin:round;stroke-miterlimit:4;stroke-dasharray:none;stroke-opacity:1"
       inkscape:connector-curvature="0" />
    <path
       id="path1858"
       d="m 164.38201,43.871022 h -1.17068"
       style="fill:none;stroke:#262626;stroke-width:0.17696354px;stroke-linecap:butt;stroke-linejoin:round;stroke-miterlimit:4;stroke-dasharray:none;stroke-opacity:1"
       inkscape:connector-curvature="0" />
    <path
       id="path1860"
       d="m 164.38201,34.546405 h -1.17068"
       style="fill:none;stroke:#262626;stroke-width:0.17696354px;stroke-linecap:butt;stroke-linejoin:round;stroke-miterlimit:4;stroke-dasharray:none;stroke-opacity:1"
       inkscape:connector-curvature="0" />
    <text
       id="text1866"
       y="128.85434"
       x="42.631104"
       style="font-style:normal;font-variant:normal;font-weight:400;font-size:3.70226645px;line-height:125%;font-family:'LM Roman 10';text-align:start;letter-spacing:0px;word-spacing:0px;text-anchor:start;fill:#000000;fill-opacity:1;stroke:none;stroke-width:0.32193619"
       xml:space="preserve"><tspan
         id="tspan1864"
         y="128.85434"
         x="42.631104"
         sodipodi:role="line"
         style="stroke-width:0.32193619"><tspan
           id="tspan1862"
           style="font-style:normal;font-variant:normal;font-weight:400;font-size:3.70226645px;font-family:'LM Roman 10';fill:#262626;stroke-width:0.32193619"
           dy="0"
           dx="0">0</tspan></tspan></text>
    <text
       id="text1872"
       y="119.4889"
       x="39.79969"
       style="font-style:normal;font-variant:normal;font-weight:400;font-size:3.70226645px;line-height:125%;font-family:'LM Roman 10';text-align:start;letter-spacing:0px;word-spacing:0px;text-anchor:start;fill:#000000;fill-opacity:1;stroke:none;stroke-width:0.32193619"
       xml:space="preserve"><tspan
         id="tspan1870"
         y="119.4889"
         x="39.79969"
         sodipodi:role="line"
         style="stroke-width:0.32193619"><tspan
           id="tspan1868"
           style="font-style:normal;font-variant:normal;font-weight:400;font-size:3.70226645px;font-family:'LM Roman 10';fill:#262626;stroke-width:0.32193619"
           dy="0"
           dx="0">0.5</tspan></tspan></text>
    <text
       id="text1878"
       y="110.12344"
       x="42.631104"
       style="font-style:normal;font-variant:normal;font-weight:400;font-size:3.70226645px;line-height:125%;font-family:'LM Roman 10';text-align:start;letter-spacing:0px;word-spacing:0px;text-anchor:start;fill:#000000;fill-opacity:1;stroke:none;stroke-width:0.32193619"
       xml:space="preserve"><tspan
         id="tspan1876"
         y="110.12344"
         x="42.631104"
         sodipodi:role="line"
         style="stroke-width:0.32193619"><tspan
           id="tspan1874"
           style="font-style:normal;font-variant:normal;font-weight:400;font-size:3.70226645px;font-family:'LM Roman 10';fill:#262626;stroke-width:0.32193619"
           dy="0"
           dx="0">1</tspan></tspan></text>
    <text
       id="text1884"
       y="100.97578"
       x="39.79969"
       style="font-style:normal;font-variant:normal;font-weight:400;font-size:3.70226645px;line-height:125%;font-family:'LM Roman 10';text-align:start;letter-spacing:0px;word-spacing:0px;text-anchor:start;fill:#000000;fill-opacity:1;stroke:none;stroke-width:0.32193619"
       xml:space="preserve"><tspan
         id="tspan1882"
         y="100.97578"
         x="39.79969"
         sodipodi:role="line"
         style="stroke-width:0.32193619"><tspan
           id="tspan1880"
           style="font-style:normal;font-variant:normal;font-weight:400;font-size:3.70226645px;font-family:'LM Roman 10';fill:#262626;stroke-width:0.32193619"
           dy="0"
           dx="0">1.5</tspan></tspan></text>
    <text
       id="text1890"
       y="91.610336"
       x="42.631104"
       style="font-style:normal;font-variant:normal;font-weight:400;font-size:3.70226645px;line-height:125%;font-family:'LM Roman 10';text-align:start;letter-spacing:0px;word-spacing:0px;text-anchor:start;fill:#000000;fill-opacity:1;stroke:none;stroke-width:0.32193619"
       xml:space="preserve"><tspan
         id="tspan1888"
         y="91.610336"
         x="42.631104"
         sodipodi:role="line"
         style="stroke-width:0.32193619"><tspan
           id="tspan1886"
           style="font-style:normal;font-variant:normal;font-weight:400;font-size:3.70226645px;font-family:'LM Roman 10';fill:#262626;stroke-width:0.32193619"
           dy="0"
           dx="0">2</tspan></tspan></text>
    <text
       id="text1896"
       y="82.244881"
       x="39.79969"
       style="font-style:normal;font-variant:normal;font-weight:400;font-size:3.70226645px;line-height:125%;font-family:'LM Roman 10';text-align:start;letter-spacing:0px;word-spacing:0px;text-anchor:start;fill:#000000;fill-opacity:1;stroke:none;stroke-width:0.32193619"
       xml:space="preserve"><tspan
         id="tspan1894"
         y="82.244881"
         x="39.79969"
         sodipodi:role="line"
         style="stroke-width:0.32193619"><tspan
           id="tspan1892"
           style="font-style:normal;font-variant:normal;font-weight:400;font-size:3.70226645px;font-family:'LM Roman 10';fill:#262626;stroke-width:0.32193619"
           dy="0"
           dx="0">2.5</tspan></tspan></text>
    <text
       id="text1902"
       y="72.879433"
       x="42.631104"
       style="font-style:normal;font-variant:normal;font-weight:400;font-size:3.70226645px;line-height:125%;font-family:'LM Roman 10';text-align:start;letter-spacing:0px;word-spacing:0px;text-anchor:start;fill:#000000;fill-opacity:1;stroke:none;stroke-width:0.32193619"
       xml:space="preserve"><tspan
         id="tspan1900"
         y="72.879433"
         x="42.631104"
         sodipodi:role="line"
         style="stroke-width:0.32193619"><tspan
           id="tspan1898"
           style="font-style:normal;font-variant:normal;font-weight:400;font-size:3.70226645px;font-family:'LM Roman 10';fill:#262626;stroke-width:0.32193619"
           dy="0"
           dx="0">3</tspan></tspan></text>
    <text
       id="text1908"
       y="63.513969"
       x="39.79969"
       style="font-style:normal;font-variant:normal;font-weight:400;font-size:3.70226645px;line-height:125%;font-family:'LM Roman 10';text-align:start;letter-spacing:0px;word-spacing:0px;text-anchor:start;fill:#000000;fill-opacity:1;stroke:none;stroke-width:0.32193619"
       xml:space="preserve"><tspan
         id="tspan1906"
         y="63.513969"
         x="39.79969"
         sodipodi:role="line"
         style="stroke-width:0.32193619"><tspan
           id="tspan1904"
           style="font-style:normal;font-variant:normal;font-weight:400;font-size:3.70226645px;font-family:'LM Roman 10';fill:#262626;stroke-width:0.32193619"
           dy="0"
           dx="0">3.5</tspan></tspan></text>
    <text
       id="text1914"
       y="54.366318"
       x="42.631104"
       style="font-style:normal;font-variant:normal;font-weight:400;font-size:3.70226645px;line-height:125%;font-family:'LM Roman 10';text-align:start;letter-spacing:0px;word-spacing:0px;text-anchor:start;fill:#000000;fill-opacity:1;stroke:none;stroke-width:0.32193619"
       xml:space="preserve"><tspan
         id="tspan1912"
         y="54.366318"
         x="42.631104"
         sodipodi:role="line"
         style="stroke-width:0.32193619"><tspan
           id="tspan1910"
           style="font-style:normal;font-variant:normal;font-weight:400;font-size:3.70226645px;font-family:'LM Roman 10';fill:#262626;stroke-width:0.32193619"
           dy="0"
           dx="0">4</tspan></tspan></text>
    <text
       id="text1920"
       y="45.000862"
       x="39.79969"
       style="font-style:normal;font-variant:normal;font-weight:400;font-size:3.70226645px;line-height:125%;font-family:'LM Roman 10';text-align:start;letter-spacing:0px;word-spacing:0px;text-anchor:start;fill:#000000;fill-opacity:1;stroke:none;stroke-width:0.32193619"
       xml:space="preserve"><tspan
         id="tspan1918"
         y="45.000862"
         x="39.79969"
         sodipodi:role="line"
         style="stroke-width:0.32193619"><tspan
           id="tspan1916"
           style="font-style:normal;font-variant:normal;font-weight:400;font-size:3.70226645px;font-family:'LM Roman 10';fill:#262626;stroke-width:0.32193619"
           dy="0"
           dx="0">4.5</tspan></tspan></text>
    <text
       id="text1926"
       y="35.635414"
       x="42.631104"
       style="font-style:normal;font-variant:normal;font-weight:400;font-size:3.70226645px;line-height:125%;font-family:'LM Roman 10';text-align:start;letter-spacing:0px;word-spacing:0px;text-anchor:start;fill:#000000;fill-opacity:1;stroke:none;stroke-width:0.32193619"
       xml:space="preserve"><tspan
         id="tspan1924"
         y="35.635414"
         x="42.631104"
         sodipodi:role="line"
         style="stroke-width:0.32193619"><tspan
           id="tspan1922"
           style="font-style:normal;font-variant:normal;font-weight:400;font-size:3.70226645px;font-family:'LM Roman 10';fill:#262626;stroke-width:0.32193619"
           dy="0"
           dx="0">5</tspan></tspan></text>
    <text
       id="text1964"
       y="38.057281"
       x="-97.926575"
       transform="rotate(-90)"
       style="font-style:normal;font-variant:normal;font-weight:400;font-size:3.92359757px;line-height:125%;font-family:'LM Roman 10';text-align:start;letter-spacing:0px;word-spacing:0px;text-anchor:start;fill:#000000;fill-opacity:1;stroke:none;stroke-width:0.32193619"
       xml:space="preserve"><tspan
         id="tspan1962"
         y="38.057281"
         x="-97.926575"
         sodipodi:role="line"
         style="stroke-width:0.32193619"><tspan
           id="tspan1928"
           style="font-style:normal;font-variant:normal;font-weight:400;font-size:3.92359757px;font-family:'LM Roman 10';fill:#262626;stroke-width:0.32193619"
           dy="0"
           dx="0">A</tspan><tspan
           id="tspan1930"
           style="font-style:normal;font-variant:normal;font-weight:400;font-size:3.92359757px;font-family:'LM Roman 10';fill:#262626;stroke-width:0.32193619"
           dy="0"
           dx="0">b</tspan><tspan
           id="tspan1932"
           style="font-style:normal;font-variant:normal;font-weight:400;font-size:3.92359757px;font-family:'LM Roman 10';fill:#262626;stroke-width:0.32193619"
           dy="0"
           dx="0">w</tspan><tspan
           id="tspan1934"
           style="font-style:normal;font-variant:normal;font-weight:400;font-size:3.92359757px;font-family:'LM Roman 10';fill:#262626;stroke-width:0.32193619"
           dy="0"
           dx="0">e</tspan><tspan
           id="tspan1936"
           style="font-style:normal;font-variant:normal;font-weight:400;font-size:3.92359757px;font-family:'LM Roman 10';fill:#262626;stroke-width:0.32193619"
           dy="0"
           dx="0">i</tspan><tspan
           id="tspan1938"
           style="font-style:normal;font-variant:normal;font-weight:400;font-size:3.92359757px;font-family:'LM Roman 10';fill:#262626;stroke-width:0.32193619"
           dy="0"
           dx="0">c</tspan><tspan
           id="tspan1940"
           style="font-style:normal;font-variant:normal;font-weight:400;font-size:3.92359757px;font-family:'LM Roman 10';fill:#262626;stroke-width:0.32193619"
           dy="0"
           dx="0">h</tspan><tspan
           id="tspan1942"
           style="font-style:normal;font-variant:normal;font-weight:400;font-size:3.92359757px;font-family:'LM Roman 10';fill:#262626;stroke-width:0.32193619"
           dy="0"
           dx="0">u</tspan><tspan
           id="tspan1944"
           style="font-style:normal;font-variant:normal;font-weight:400;font-size:3.92359757px;font-family:'LM Roman 10';fill:#262626;stroke-width:0.32193619"
           dy="0"
           dx="0">n</tspan><tspan
           id="tspan1946"
           style="font-style:normal;font-variant:normal;font-weight:400;font-size:3.92359757px;font-family:'LM Roman 10';fill:#262626;stroke-width:0.32193619"
           dy="0"
           dx="0">g</tspan><tspan
           id="tspan1948"
           style="font-style:normal;font-variant:normal;font-weight:400;font-size:3.92359757px;font-family:'LM Roman 10';fill:#262626;stroke-width:0.32193619"
           dy="0"
           dx="0"> </tspan><tspan
           id="tspan1950"
           style="font-style:normal;font-variant:normal;font-weight:400;font-size:3.92359757px;font-family:'LM Roman 10';fill:#262626;stroke-width:0.32193619"
           dy="0"
           dx="0">[</tspan><tspan
           id="tspan1952"
           style="font-style:normal;font-variant:normal;font-weight:400;font-size:3.92359757px;font-family:'LM Roman 10';fill:#262626;stroke-width:0.32193619"
           dy="0"
           dx="0">C</tspan><tspan
           id="tspan1954"
           style="font-style:normal;font-variant:normal;font-weight:400;font-size:3.92359757px;font-family:'LM Roman 10';fill:#262626;stroke-width:0.32193619"
           dy="0"
           dx="0">e</tspan><tspan
           id="tspan1956"
           style="font-style:normal;font-variant:normal;font-weight:400;font-size:3.92359757px;font-family:'LM Roman 10';fill:#262626;stroke-width:0.32193619"
           dy="0"
           dx="0">n</tspan><tspan
           id="tspan1958"
           style="font-style:normal;font-variant:normal;font-weight:400;font-size:3.92359757px;font-family:'LM Roman 10';fill:#262626;stroke-width:0.32193619"
           dy="0"
           dx="0">t</tspan><tspan
           id="tspan1960"
           style="font-style:normal;font-variant:normal;font-weight:400;font-size:3.92359757px;font-family:'LM Roman 10';fill:#262626;stroke-width:0.32193619"
           dy="0"
           dx="0">]</tspan></tspan></text>
    <text
       id="text1970"
       y="33.239597"
       x="72.034279"
       style="font-style:normal;font-variant:normal;font-weight:700;font-size:3.92359757px;line-height:125%;font-family:'LM Roman 10';text-align:start;letter-spacing:0px;word-spacing:0px;text-anchor:start;fill:#000000;fill-opacity:1;stroke:none;stroke-width:0.32193619"
       xml:space="preserve"><tspan
         id="tspan1968"
         y="33.239597"
         x="72.034279"
         sodipodi:role="line"
         style="stroke-width:0.32193619"><tspan
           id="tspan1966"
           style="font-style:normal;font-variant:normal;font-weight:700;font-size:3.92359757px;font-family:'LM Roman 10';fill:#000000;stroke-width:0.32193619"
           dy="0"
           dx="0">Simulation der Frequenzmessung</tspan></tspan></text>
    <path
       id="path1972"
       d="m 46.102312,122.78315 0.08167,0.39475 0.340315,1.36126 0.326702,1.23875 0.326702,-2.42304 0.326702,1.18429 0.313088,1.2932 0.326702,-2.20524 0.31309,1.72879 0.31309,-1.67434 0.313089,2.4775 0.313088,-0.80316 0.299477,-4.09737 0.31309,4.17906 0.299477,-2.83142 0.299477,1.79686 0.299476,-1.25236 0.299477,-0.38115 0.299477,0.58534 0.285864,-2.36858 0.299476,2.74973 0.285865,-0.1089 0.285864,-2.95392 0.285864,2.42303 0.285864,-0.3267 0.285864,1.10262 0.272252,-1.59267 0.285865,-0.0544 0.27225,1.56544 0.272252,-1.02094 0.272252,0.69425 0.272251,-1.82409 h 0.272251 l 0.272253,1.90576 0.258638,-0.50367 0.272252,1.49739 0.25864,-0.8576 0.258638,-3.22617 0.258638,3.44397 0.25864,1.18431 0.25864,-5.64923 0.258638,1.23875 0.25864,3.66177 0.245026,-3.1581 0.258638,-0.66702 0.245027,6.58849 0.245026,-4.92776 0.245027,2.45026 0.245026,-4.38324 0.245026,3.1445 0.245027,-3.6754 0.245026,4.0021 0.231414,-2.8178 0.245027,0.0953 0.231413,3.13089 0.245027,1.23874 0.231414,-0.6534 0.231413,-2.53193 0.231414,0.6534 0.231414,3.89319 0.231413,-2.98115 0.231415,-4.81885 0.231413,3.68901 0.217802,-3.22619 0.231414,0.21781 0.217801,3.72984 0.231414,2.08272 0.2178,-4.90053 0.217803,4.02933 0.2178,-2.9267 0.217801,-4.60105 0.217803,4.5466 0.2178,2.98115 0.217802,-4.02933 0.2178,5.32253 0.204191,-7.20105 0.217799,7.79999 0.204188,-4.79162 0.217802,4.84609 0.204188,-7.85446 0.204188,7.52774 0.217804,-5.21361 0.204188,-1.03456 0.204188,3.26702 0.204191,1.85131 0.204188,-5.32251 0.204188,4.83246 0.190577,-2.34137 0.204188,2.13718 0.204188,0.77592 0.190576,-0.57173 0.204188,-1.90576 0.190576,-3.25341 0.204189,7.39163 0.190577,0.13613 0.190576,-7.20105 0.190576,3.59372 0.190577,2.36859 0.204188,-4.99582 0.190577,-0.13612 0.176961,-1.37488 0.190578,-2.61361 0.190576,2.39581 0.190577,1.21152 0.190576,0.0273 0.176962,5.17278 0.190577,-2.31413 0.176962,-3.49844 0.190576,1.71518 0.176965,0.59895 0.190576,-0.5445 0.176963,-1.66073 0.176964,-2.8042 0.176962,2.61362 0.190577,1.52461 0.176966,0.46283 0.176961,-0.61257 0.176966,4.94137 0.176961,-9.40629 0.16335,2.84503 0.176966,1.82408 0.176961,0.81675 0.176966,-0.2178 0.163351,-1.23874 0.176961,-2.25969 0.176966,3.58011 0.163349,2.61362 0.176966,1.63351 0.163351,-6.26179 0.163349,6.64294 0.176963,-8.26283 0.163354,-2.2597 0.163349,3.82514 0.163351,-4.17907 0.176962,1.97383 0.163353,1.04817 0.163351,0.13613 0.16335,6.39791 0.163351,-8.8754 0.163351,4.62827 0.16335,-3.49843 0.149739,2.87226 0.163351,2.01466 0.163349,1.15706 0.163355,0.29948 0.149735,-0.55811 0.163354,-1.42933 0.149736,-2.28691 0.163353,-3.1445 0.149736,3.49843 0.163351,2.68167 0.149739,1.89216 0.163349,-6.52042 0.149739,0.24502 0.149739,-0.55812 0.163351,6.28902 0.149739,-2.1508 0.149739,4.76441 0.149739,-11.48902 0.149736,3.19896 0.149739,2.45026 0.149738,1.68796 0.149739,-6.91519 0.149739,8.04503 0.149739,-8.46702 0.149737,6.58849 0.149739,-2.06911 0.149739,-2.83142 0.136123,-3.5801 0.149739,3.71622 0.149739,3.022 0.136128,-5.78535 0.149736,1.57906 0.149739,0.89844 0.136128,0.17695 0.149735,7.70473 0.136127,-9.41991 0.136125,6.34346 0.149739,-2.57277 0.136128,5.02303 0.149735,-3.94764 0.136127,3.70262 0.136121,-5.32251 0.13613,2.39581 0.14974,-6.6974 0.13612,1.0754 0.13613,0.42199 0.13613,-0.20418 0.13612,-0.87121 0.13613,7.07854 0.13612,-2.12356 0.13613,5.86702 0.13612,-12.06074 0.13613,4.62826 0.13613,4.04294 0.13612,-5.29528 0.13613,2.8178 0.12251,2.23246 0.13613,1.64713 0.13612,-7.80001 0.13613,0.42198 0.12251,-0.16335 0.13613,8.18117 0.13612,-1.32043 0.12252,-1.90576 0.13612,-2.50471 0.12251,5.9487 0.13613,-3.66179 0.12252,4.84608 0.13612,-4.81886 0.12251,-5.40419 0.13613,3.17173 0.12251,2.64084 0.12252,2.09633 0.13612,-7.69109 0.12252,0.99372 0.12251,0.4492 0.12251,-0.0816 0.13613,-0.61257 0.12251,8.23561 0.12251,-1.67434 0.12252,-11.65237 0.12251,6.711 0.12251,6.20734 0.12252,-3.79791 0.12251,-4.3288 0.12251,-4.8733 0.12252,4.20628 0.12251,3.71624 0.12251,3.22618 0.12252,-6.94242 0.12251,2.23246 0.12251,1.74241 0.12251,1.26597 0.1089,0.78953 0.12252,0.28587 0.12251,-10.03248 0.12252,9.17489 0.1089,-1.15708 0.12251,-1.63351 0.12252,-2.13717 0.1089,7.37802 0.12251,-3.06283 0.12251,6.47958 0.10891,-14.0754 0.12251,5.56754 0.1089,5.14556 0.12251,-5.43142 0.1089,4.24713 0.12251,-6.3843 0.10891,3.37592 0.1089,-7.32358 0.12251,2.4775 0.1089,12.3466 0.12251,-8.68482 0.1089,1.1843 0.1089,0.74868 0.1089,0.32671 0.12252,-0.1089 0.1089,-0.54451 0.1089,-0.96649 0.1089,-1.40209 0.12252,8.72567 0.1089,-12.80944 0.1089,-2.6953 0.1089,7.51414 0.1089,7.11939 0.1089,-14.6063 0.1089,6.32984 0.1089,5.9351 0.1089,-15.95396 0.1089,5.14556 0.1089,4.76441 0.1089,-6.46598 0.1089,14.85133 0.1089,-7.25551 0.1089,3.22619 0.1089,-8.0995 0.10891,13.42201 0.0953,-8.90263 0.1089,-9.33822 0.1089,12.3466 0.1089,0.95289 0.1089,-10.54976 0.0953,11.29845 0.1089,-0.19058 0.1089,-0.55811 0.0953,-12.16965 0.1089,-1.34764 0.1089,9.55602 0.0953,9.22933 0.1089,-2.42304 0.1089,-2.79057 0.0953,-3.18535 0.1089,-3.55289 0.0953,7.51415 0.1089,-4.27435 0.0953,6.83351 0.1089,-5.00943 0.0953,6.16651 0.1089,-17.30159 0.0953,5.45865 0.0953,5.13193 0.1089,-6.83351 0.0953,4.47854 0.1089,4.13823 0.0953,-7.90891 0.0953,3.4712 0.1089,3.1445 0.0953,-8.9843 0.0953,2.4775 0.0953,2.15078 0.1089,1.82409 0.0953,1.51099 0.0953,-10.76754 0.0953,12.80944 0.1089,0.54449 0.0953,-11.81571 0.0953,11.92462 0.0953,-0.4356 0.0953,-12.86389 0.0953,11.0398 0.0953,-1.4021 0.0953,-1.72879 0.0953,-2.04189 0.0953,-2.36859 0.0953,9.58326 0.0953,-2.99478 0.0953,-3.30785 0.0953,8.72566 0.0953,-3.93404 0.0953,-4.24712 0.0953,-4.57383 0.0953,7.55499 0.0953,-5.18639 0.0953,6.99686 0.0953,-5.81257 0.0953,-6.13927 0.0953,6.13927 0.0816,5.86702 0.0953,5.59478 0.0953,-7.3508 0.0953,5.03665 0.0953,-7.96336 0.0816,4.46493 0.0953,4.19267 0.0953,-8.8754 0.0953,3.63457 0.0816,3.3623 0.0953,3.09005 0.0953,-10.08692 0.0816,-10.41361 0.0953,2.23246 0.0953,1.9602 0.0816,1.70157 0.0953,1.42933 0.0816,1.15707 0.0953,0.88482 0.0816,0.61256 0.0953,0.35393 0.0953,0.0816 0.0816,-0.19058 0.0953,-0.46282 0.0816,-0.72147 0.0953,12.29216 0.0816,-14.55184 0.0953,-1.53823 0.0816,11.57069 0.0817,-15.43666 0.0953,11.08064 0.0816,-2.58639 0.0953,-2.84503 0.0816,10.38639 0.0817,-16.90681 0.0953,9.90995 0.0816,-3.9068 0.0817,9.44712 0.0953,-4.41047 0.0816,-4.68273 0.0816,-4.95498 0.0953,8.50786 0.0816,-5.45864 0.0816,8.04503 0.0816,-5.97592 0.0953,7.58221 0.0817,-6.47959 0.0816,-6.75184 0.0816,6.88796 0.0816,6.67017 0.0953,-7.51414 0.0816,6.22095 0.0817,-8.01781 0.0816,-8.29007 0.0816,19.5885 0.0816,-8.7665 0.0816,5.0775 0.0816,-9.28378 0.0953,4.62828 0.0816,4.42408 0.0816,-10.04608 0.0817,3.96126 0.0816,3.74345 0.0816,3.52567 0.0816,-11.03981 0.0816,3.06283 0.0816,2.85864 0.0816,-11.78849 0.0816,16.85238 0.0816,2.20523 0.0816,1.98745 0.068,-12.75499 0.0816,1.53822 0.0816,1.32041 0.0816,1.10262 0.0816,0.88482 0.0817,0.66702 0.0816,0.46283 0.0816,0.24503 0.0816,0.0273 0.068,-0.19058 0.0816,-0.40837 0.0816,-0.61257 0.0817,-0.84397 0.0816,-1.04817 0.068,-1.26598 0.0816,-1.47016 0.0816,-1.70157 0.0816,13.08169 0.068,-2.09633 0.0816,-17.36965 0.0816,12.52357 0.0817,-2.74975 0.068,-2.95393 0.0816,11.96547 0.0816,-3.36232 0.068,-3.5801 0.0816,-3.78429 0.0816,-4.01572 0.068,11.06702 0.0816,-4.42409 0.068,10.71311 0.0816,-20.18746 0.0817,10.34556 0.068,-5.25445 0.0816,9.99163 0.068,-5.66284 0.0816,-5.86702 0.0816,9.44714 0.068,-6.2618 0.0816,-6.49319 0.068,8.91624 0.0816,-6.88796 0.068,8.54869 0.0817,8.39896 0.068,-23.195837 0.0817,8.017817 0.068,7.85446 0.0816,-8.09948 0.068,7.51414 0.068,-8.50786 0.0816,7.16021 0.068,6.99687 0.0816,-9.0932 0.068,6.64293 0.068,-9.50158 0.0816,6.30263 0.068,-9.90996 0.0816,5.94869 0.068,-10.30472 0.068,5.59478 0.0816,5.44503 0.068,5.26806 0.068,-11.08063 0.0816,4.91413 0.068,-11.489019 0.068,20.854469 0.068,-11.85655 0.0816,4.24713 0.068,-12.27855 0.068,20.29636 0.0816,-12.64609 0.068,3.5801 0.068,3.41677 0.068,-13.24504 0.068,19.5885 0.0816,-13.61258 0.068,2.74974 0.068,2.58639 0.068,2.40943 0.068,2.25968 0.0816,2.10996 0.068,-14.78327 0.068,18.48588 0.068,-15.15079 0.068,1.42932 0.068,1.26596 0.068,1.10262 0.068,0.93927 0.0816,-16.117291 0.068,17.519391 0.068,0.46283 0.068,0.29947 0.068,-16.879599 0.068,16.974889 0.068,-0.17697 0.068,-0.35392 0.068,-17.62829 0.068,16.444 0.068,-0.83037 0.068,-0.99372 0.068,-1.15708 0.068,-1.32041 0.068,15.79059 0.068,-18.92149 0.068,-1.79686 0.068,-1.97381 0.068,-2.12357 0.068,-2.28691 0.068,15.00106 0.068,-2.58639 0.068,-2.74974 0.068,-2.89948 0.068,-3.07644 0.0545,-3.226188 0.068,14.211538 0.068,-3.52566 0.068,13.9665 0.068,-3.82512 0.068,-3.97489 0.068,-4.15183 0.068,-4.30157 0.0544,13.31309 0.068,-4.60104 0.068,-4.76441 0.068,-4.91413 0.068,-5.09112 0.068,12.67332 0.0544,-5.37697 0.068,-5.55393 0.068,12.30577 0.068,-5.8398 0.0544,-6.00315 0.068,11.92463 0.068,-6.30263 0.068,-6.45236 0.0544,11.54347 0.068,-6.75184 0.068,-6.928809 0.068,11.175929 0.0544,-7.21467 0.068,10.93091 0.068,-7.51414 0.068,10.68586 0.0544,-7.8 0.068,10.44085 0.068,-8.09948 0.0545,10.19581 0.068,-26.884843 0.068,9.937193 0.0544,-8.72567 0.068,9.69216 0.0544,9.58325 0.068,-9.16126 0.068,9.33823 0.0544,-9.44714 0.068,9.10682 0.068,-9.7466 0.0545,-9.909963 0.068,8.725673 0.0545,8.61675 0.068,8.49425 0.0545,-10.46807 0.068,-10.63143 0.068,8.14032 0.0544,-10.930898 0.068,7.881688 0.0544,7.77279 0.068,7.67749 0.0544,-11.48902 0.068,-11.652366 0.0545,7.282726 0.068,7.18745 0.0545,-12.07436 0.068,6.94241 0.0545,6.83352 0.068,6.72461 0.0545,-12.64609 0.068,-12.80943 0.0545,6.34346 0.068,6.24817 0.0544,-13.245046 0.0545,6.003146 0.068,5.89426 0.0545,5.78535 0.068,-13.803168 0.0545,5.540328 0.068,5.44503 0.0545,5.32252 0.0544,-14.37489 0.068,5.09111 0.0545,4.98221 0.068,-14.810493 0.0545,4.737173 0.0544,4.62828 0.068,4.533 0.0544,4.41047 0.0545,4.30156 0.068,-15.62722 0.0544,4.05654 0.0545,3.96126 0.068,-16.076466 0.0545,23.658666 0.0544,3.63456 0.068,-16.47121 0.0544,3.38953 0.0545,-16.770705 0.068,23.236675 0.0545,3.06284 0.0544,-17.16547 0.0545,2.8178 0.068,2.72252 0.0545,2.61361 0.0544,2.50472 0.0545,-17.873324 0.068,22.556044 0.0545,-18.145569 0.0544,2.041889 0.0545,22.31102 0.068,-18.54034 0.0545,1.72881 0.0544,1.60628 0.0545,1.511 0.0544,-19.112067 0.068,21.807357 0.0544,-19.384317 0.0544,21.644007 0.0545,0.96649 0.0544,-19.779082 0.068,21.398972 0.0544,-20.05133 0.0545,21.23563 0.0544,-20.32359 0.0545,21.07229 0.0544,-20.59584 0.0545,20.92254 0.068,-20.86809 0.0545,20.75918 0.0544,-21.126717 0.0545,20.582207 0.0544,-21.398961 0.0545,20.432471 0.0544,-21.671225 0.0544,20.269135 0.0545,-21.929864 0.0544,20.105784 0.068,-1.0754 0.0545,-22.351853 0.0544,19.874363 0.0545,-22.610493 0.0544,19.697403 0.0544,-1.60628 0.0545,-1.72881 0.0544,-1.82408 0.0545,19.39793 0.0544,-23.386419 0.0545,-2.150781 0.0544,19.16651 0.0545,-23.794788 0.0544,19.003168 0.0545,-2.55917 0.0544,-24.203169 0.0545,18.771759 0.0544,-2.88588 0.0544,18.62202 0.0545,-24.706846 0.0544,-3.198953 0.0545,18.376989 0.0544,-3.38953 0.0545,18.24085 0.0544,-25.346629 0.0545,-3.716237 0.0544,18.009456 0.0545,-3.90682 0.0544,-4.00209 0.0545,-4.12462 0.0544,-4.219901 0.0545,17.628301 0.0409,-4.41047 0.0544,-4.533 0.0545,17.41049 0.0544,-26.775943 0.0545,-4.846082 0.0544,17.179075 0.0545,-5.03665 0.0544,-5.131946 0.0545,16.947666 0.0409,-5.32252 0.0544,-5.44503 0.0545,16.74347 0.0544,-5.622 0.0545,-5.7309 0.0544,-5.83978 0.0545,16.44399 0.0409,-6.03037 0.0545,-28.586423 0.0544,16.198973 0.0545,-6.34346 0.0544,-6.465982 0.0545,15.994792 0.0409,-6.656559 0.0544,15.858659 0.0545,-6.83352 0.0544,15.70892 0.0545,-7.02409 0.0409,-7.133 0.0545,-7.24188 0.0544,15.42304 0.0545,-7.41885 0.0544,-7.54137 0.0409,-7.650266 0.0545,15.137176 0.0544,-7.84083 0.0545,-7.936146 0.0409,-8.058642 0.0545,37.829368 0.0544,-8.2084 0.0545,-8.31728 0.0409,-8.426187 0.0545,14.565457 0.0544,-8.61675 0.0544,-8.725673 0.0409,14.347653 0.0544,-8.90262 0.0545,14.21153 0.0409,-9.10682 0.0545,-9.202101 0.0544,-9.311003 0.0409,13.912064 0.0544,13.87121 0.0544,-9.58325 0.0544,-9.69216 0.0409,13.6398 0.0544,-9.86911 0.0544,13.50367 0.0409,-10.0597 0.0545,13.36756 0.0544,-10.25027 0.0409,-10.359181 0.0544,-10.481682 0.0409,36.740353 0.0545,-10.61781 0.0544,-10.74033 0.0409,-10.849223 0.0544,12.809433 0.0545,-11.039798 0.0409,12.686928 0.0544,12.61885 0.0409,-11.29843 0.0544,-11.420966 0.0545,12.414676 0.0409,-11.597921 0.0544,-11.720423 0.0409,36.209464 0.0545,-11.87017 0.0544,-11.979071 0.0409,12.006291 0.0544,-12.169642 0.0409,11.870172 0.0545,-12.346621 0.0409,-12.469115 0.0544,11.65236 0.0544,11.611536 0.0409,11.54347 0.0545,-12.80943 0.0409,11.40733 0.0544,-13.00001 0.0409,-13.108913 0.0545,11.203153 0.0409,-13.313103 0.0544,11.067023 0.0409,-13.490063 0.0544,35.460773 0.0409,-13.65342 0.0544,10.82201 0.0409,-13.83038 0.0544,10.68586 0.0409,-14.02095 0.0544,10.54975 0.0409,-14.211538 0.0544,10.413628 0.0409,-14.402117 0.0545,10.291117 0.0409,-14.592686 0.0544,10.141366 0.0409,-14.783258 0.0544,34.916268 0.0409,-14.93299 0.0544,9.89634 0.0409,-15.12358 0.0544,9.77383 0.0409,9.71939 0.0409,-15.39584 0.0544,9.58326 0.0409,-15.58641 0.0544,9.44714 0.0409,-15.776982 0.0544,9.311002 0.0409,9.27016 0.0409,-16.049226 0.0544,9.120436 0.0409,9.07959 0.0544,-16.321484 0.0409,8.943454 0.0409,-16.498438 0.0545,8.793725 0.0409,8.752893 0.0544,-16.770701 0.0409,8.616762 0.0409,8.562319 0.0545,-17.042953 0.0409,8.426183 0.0409,8.37174 0.0544,-17.315204 0.0409,8.249226 0.0409,8.181168 0.0544,-17.587462 0.0409,8.058652 0.0544,7.99058 0.0409,7.93613 0.0409,-17.927765 0.0544,7.813625 0.0409,7.74556 0.0409,-18.200024 0.0545,7.623045 0.0409,7.568599 0.0409,7.50053 0.0409,-18.540333 0.0544,7.378013 0.0409,7.32357 0.0409,7.2555 0.0544,-18.880646 0.0409,7.132996 0.0409,7.07854 0.0545,7.01047 0.0409,-19.23458 0.0409,-19.357074 0.0409,6.806288 0.0545,6.765453 0.0409,6.697393 0.0409,6.64294 0.0544,-19.779085 0.0409,6.520422 0.0409,6.452363 0.0409,6.41153 0.0544,6.34347 0.0409,-20.214689 0.0409,6.220949 0.0409,6.1665 0.0544,6.11205 0.0409,-20.568611 0.0409,5.97592 0.0409,5.921471 0.0409,-20.840857 0.0545,5.798959 0.0409,5.730892 0.0409,5.676446 0.0409,5.63562 0.0545,5.56753 0.0409,5.5131 0.0409,5.45865 0.0409,-21.49426 0.0409,-21.630396 0.0544,5.254457 0.0409,5.200004 0.0409,5.145551 0.0409,5.09111 0.0409,5.023044 0.0409,4.9822 0.0545,4.92776 0.0409,4.8733 0.0409,-22.365469 0.0409,4.737179 0.0409,4.68273 0.0409,4.62828 0.0544,4.57382 0.0409,-22.801073 0.0409,4.4377 0.0409,4.396863 0.0409,-23.086934 0.0409,4.260739 0.0544,4.206288 0.0409,4.138222 0.0409,4.097392 0.0409,4.042927 0.0409,3.974876 0.0409,-23.658663 0.0409,3.852363 0.0409,3.797908 0.0544,3.743458 0.0409,3.689012 0.0409,3.634556 0.0409,3.580106 0.0409,-24.271226 0.0409,3.443984 0.0409,3.403146 0.0409,3.335079 0.0409,31.172817 0.0409,3.2534 0.0409,-24.734061 0.0544,3.130901 0.0409,3.06282 0.0409,3.00838 0.0409,2.96755 0.0409,2.89947 0.0409,-25.251329 0.0409,2.776968 0.0409,2.722514 0.0409,2.668064 0.0409,2.613615 0.0409,2.559168 0.0409,2.4911 0.0409,2.45026 0.0409,2.39582 0.0409,2.34136 0.0409,2.28691 0.0409,-26.163372 0.0545,2.150789 0.0409,2.10995 0.0409,2.041887 0.0409,30.492176 0.0409,-26.55814 0.0409,1.87853 0.0409,1.83769 0.0409,1.76965 0.0409,1.72879 0.0409,-27.007351 0.0409,1.579058 0.0409,30.274373 0.0409,1.49739 0.0409,1.45654 0.0409,-27.402119 0.0409,1.320421 0.0409,1.265969 0.0409,30.097409 0.0409,1.1843 0.0409,-27.8105 0.0409,1.048167 0.0409,0.99372 0.0273,29.961283 0.0409,-28.123584 0.0409,0.830358 0.0409,0.789535 0.0409,0.72147 0.0409,0.66702 0.0409,0.626172 0.0409,0.558119 0.0409,0.517272 0.0409,0.462833 0.0409,0.394765 0.0409,0.35392 0.0409,0.29949 0.0409,0.24502 0.0409,0.17696 0.0409,0.13612 0.0409,0.0817 0.0409,0.0272 0.0272,-0.0272 0.0409,-0.0817 0.0409,-0.13612 0.0409,-0.17696 0.0409,-0.24502 0.0409,-0.29949 0.0409,-0.35392 0.0409,-0.394765 0.0409,-0.462833 0.0409,-0.517272 0.0409,-0.558119 0.0273,-0.626172 0.0409,-0.66702 0.0409,-0.72147 0.0409,-0.789535 0.0409,-0.830358 0.0409,-0.884819 0.0409,-0.95288 0.0409,28.994793 0.0273,-31.03668 0.0409,-1.102622 0.0409,28.913122 0.0409,-31.281709 0.0409,-1.265969 0.0409,28.831448 0.0409,-1.34765 0.0273,-31.608409 0.0409,-1.483773 0.0409,28.736152 0.0409,-31.853431 0.0409,28.668091 0.0409,-1.66074 0.0409,-1.72879 0.0273,-1.76965 0.0409,-1.83769 0.0409,-1.87853 0.0409,-1.946596 0.0409,-1.98744 0.0409,-2.041887 0.0273,28.450293 0.0409,-32.711032 0.0409,-2.205236 0.0409,28.368608 0.0409,-32.942433 0.0273,28.314163 0.0409,-2.39582 0.0409,-33.201076 0.0409,28.259716 0.0409,-2.559168 0.0273,-2.613615 0.0409,-2.668064 0.0409,-2.722514 0.0409,28.137201 0.0409,-33.731973 0.0272,28.069133 0.0409,-2.89947 0.0409,-33.977001 0.0409,28.001071 0.0273,-3.06282 0.0409,-3.130901 0.0409,-3.171734 0.0409,27.905795 0.0409,-34.426217 0.0273,-3.335079 0.0409,27.837726 0.0409,-34.684856 0.0409,27.796896 0.0272,-3.52567 0.0409,-3.580106 0.0409,-3.634556 0.0409,27.687982 0.0273,-35.120452 0.0409,-3.797908 0.0409,27.61993 0.0409,-35.379101 0.0273,27.565471 0.0409,-3.974876 0.0409,-4.042927 0.0273,-4.097392 0.0409,27.483795 0.0409,-35.828305 0.0409,27.429345 0.0272,-35.991656 0.0409,27.388506 0.0409,-4.396863 0.0273,-4.4377 0.0409,-4.49215 0.0409,27.293223 0.0409,-36.454488 0.0273,27.252388 0.0409,-4.68273 0.0409,-4.737179 0.0273,-4.791627 0.0409,27.157096 0.0409,-36.917318 0.0273,27.116258 0.0409,-37.080663 0.0409,27.075419 0.0409,-5.09111 0.0272,-5.145551 0.0409,-5.200004 0.0409,26.980139 0.0273,-37.5435 0.0409,26.9393 0.0409,-5.390596 0.0273,-5.431412 0.0409,26.857618 0.0409,-37.911031 0.0273,26.830401 0.0409,-5.63562 0.0409,-5.676446 0.0273,-5.730892 0.0409,-5.798959 0.0273,-5.839795 0.0409,26.680652 0.0409,-5.921471 0.0273,-5.97592 0.0409,26.626211 0.0409,-38.741406 0.0273,26.571756 0.0409,-38.918367 0.0409,26.530918 0.0273,26.517309 0.0409,-39.108945 0.0273,26.462855 0.0409,-39.299519 0.0409,26.435626 0.0273,26.394803 0.0409,-39.490099 0.0409,26.353959 0.0273,-39.667062 0.0409,26.326729 0.0273,26.285893 0.0409,-39.857634 0.0409,26.245054 0.0273,-40.048211 0.0409,26.217828 0.0273,26.176983 0.0409,-40.238777 0.0409,26.149767 0.0272,-7.132996 0.0409,-7.201051 0.0272,26.081697 0.0409,-40.619931 0.0272,26.040861 0.0409,-7.378013 0.0409,-7.432474 0.0273,-7.486917 0.0409,25.959194 0.0273,-7.568599 0.0409,-7.623045 0.0273,25.904734 0.0409,-41.300561 0.0409,25.850291 0.0272,-7.813625 0.0409,-7.854458 0.0272,25.782223 0.0409,-41.681713 0.0272,25.755003 0.0409,-8.058652 0.0273,-8.099483 0.0409,25.686945 0.0409,-8.181168 0.0273,-8.249226 0.0409,-8.29006 0.0273,25.605264 0.0409,-8.37174 0.0273,-8.426183 0.0409,-8.480637 0.0273,25.52359 0.0409,-8.562319 0.0273,-8.616762 0.0409,25.469131 0.0273,-42.866006 0.0409,25.414683 0.0273,-8.793725 0.0409,-8.861787 0.0409,25.360225 0.0273,-8.943454 0.0409,25.333004 0.0273,-43.369671 0.0409,25.278561 0.0273,-9.120436 0.0409,-9.188486 0.0273,-9.229329 0.0409,25.196881 0.0272,-9.311002 0.0409,-9.365454 0.0272,25.142436 0.0409,-9.44714 0.0272,-9.501571 0.0409,-9.569645 0.0272,25.074366 0.0273,-9.637705 0.0409,-9.692153 0.0273,-9.760218 0.0409,24.992696 0.0273,-9.828283 0.0409,-9.882734 0.0273,24.938257 0.0409,-9.964426 0.0273,24.897416 0.0409,-44.989575 0.0272,24.856565 0.0409,-10.141366 0.0273,24.815736 0.0409,-45.289057 0.0273,24.77489 0.0409,-10.345555 0.0273,24.747672 0.0273,-45.602142 0.0409,24.706831 0.0273,-10.522524 0.0409,24.665995 0.0273,-10.617813 0.0409,-10.658652 0.0273,24.611555 0.0409,-10.740334 0.0273,24.570714 0.0273,-46.228329 0.0409,24.529866 0.0273,-10.9309 0.0409,24.502643 0.0273,-11.01258 0.0409,-11.067023 0.0273,-11.121476 0.0273,24.434579 0.0409,-11.203153 0.0273,24.380133 0.0409,-46.963401 0.0273,24.352903 0.0273,-11.393727 0.0409,24.325685 0.0273,-11.475417 0.0409,-11.529851 0.0273,-11.584304 0.0273,24.243996 0.0409,-11.65236 0.0273,24.203166 0.0409,-11.734051 0.0273,-11.802098 0.0273,-11.856557 0.0409,24.135104 0.0273,-11.92462 0.0409,24.094262 0.0273,-48.134076 0.0273,24.06704 0.0409,-12.128809 0.0273,24.026203 0.0409,-12.196872 0.0273,23.985364 0.0273,-12.264941 0.0409,-12.346601 0.0273,-12.387447 0.0273,23.917293 0.0409,-12.469115 0.0273,23.890081 0.0409,-12.550807 0.0273,-12.605243 0.0273,-12.659698 0.0409,23.8084 0.0273,-12.741376 0.0273,23.781174 0.0409,-12.809433 0.0273,23.740343 0.0273,-49.549792 0.0409,23.699499 0.0273,-13.000013 0.0273,23.67227 0.0409,-13.095297 0.0273,23.645053 0.0272,-13.163371 0.0409,23.604221 0.0273,-50.107909 0.0273,23.563374 0.0409,-13.35394 0.0273,23.536145 0.0273,-13.435612 0.0409,-13.490063 0.0273,23.481705 0.0272,-13.571749 0.0409,23.440859 0.0272,-50.761304 0.0273,23.413637 0.0409,-13.76232 0.0273,23.372798 0.0273,-13.843992 0.0409,23.345581 0.0273,-13.912064 0.0273,23.304734 0.0409,-13.993731 0.0273,23.277521 0.0273,-51.441946 0.0409,23.236674 0.0273,-14.184307 0.0273,-14.265982 0.0273,23.195832 0.0409,-14.320434 0.0273,23.155 0.0273,-14.402111 0.0409,23.127784 0.0273,-14.483797 0.0272,23.100547 0.0409,-14.565457 0.0273,23.059707 0.0273,-52.36759 0.0273,23.032483 0.0409,-14.756036 0.0273,-14.824097 0.0273,22.978032 0.0273,-14.892161 0.0409,22.950803 0.0273,-14.973832 0.0273,22.909978 0.0409,-15.041907 0.0273,22.882737 0.0273,-15.137176 0.0273,22.855516 0.0409,-15.20525 0.0273,-15.259704 0.0272,22.801074 0.0273,-15.341383 0.0409,-15.409436 0.0273,-15.463886 0.0273,22.733003 0.0273,-15.545566 0.0409,22.705783 0.0273,-15.613627 0.0273,-15.681691 0.0273,22.65133 0.0409,-15.749754 0.0273,22.624106 0.0273,-15.845041 0.0273,22.596883 0.0409,-15.913106 0.0273,22.569665 0.0272,-15.994792 0.0273,-16.049228 0.0409,22.51521 0.0273,-16.130913 0.0273,22.474373 0.0273,-16.198973 0.0409,22.447143 0.0273,-16.280645 0.0273,-16.348706 0.0273,22.406303 0.0273,-16.430381 0.0409,22.379089 0.0273,-16.512069 0.0273,22.351849 0.0272,-16.580115 0.0273,22.311015 0.0409,-16.661798 0.0273,-16.716242 0.0273,22.25657 0.0273,-16.797925 0.0409,22.242955 0.0273,-16.879601 0.0273,22.202121 0.0273,-16.947666 0.0273,-17.029337 0.0409,22.161283 0.0273,-17.097402 0.0273,22.134052 0.0272,-17.179075 0.0273,-17.233522 0.0273,22.079604 0.0409,-17.315203 0.0272,22.052376 0.0273,-17.383261 0.0273,22.011541 0.0272,-17.464938 0.0409,-17.533004 0.0273,21.970704 0.0273,-17.614679 0.0273,21.957086 0.0273,-17.696347 0.0273,21.916248 0.0409,-17.764413 0.0273,-17.832476 0.0273,21.8618 0.0273,-17.900541 0.0273,21.834576 0.0272,-17.982217 0.0409,-18.063891 0.0272,21.807352 0.0273,21.780121 0.0272,21.780129 0.0273,-18.17279 0.0273,-18.227244 0.0409,21.725684 0.0273,-18.308927 0.0273,21.698457 0.0273,-18.376989 0.0273,-18.458654 0.0273,21.657607 0.0273,-18.526717 0.0409,21.616769 0.0273,-18.608387 0.0273,-18.662846 0.0273,21.575938 0.0273,-18.744521 0.0272,21.548711 0.0273,-18.839808 0.0409,21.5351 0.0273,21.507877 0.0272,-18.921487 0.0273,21.480657 0.0273,-19.003168 0.0273,-19.071225 0.0273,21.439809 0.0272,-19.152893 0.0409,21.412587 0.0273,-19.234576 0.0273,-19.289023 0.0273,21.371747 0.0273,-19.384311 0.0273,21.344524 0.0273,21.330909 0.0272,-19.465988 0.0409,21.290068 0.0272,-19.547655 0.0273,21.276465 0.0272,-19.629344 0.0273,-19.697403 0.0273,21.235624 0.0273,-19.779078 0.0273,21.208398 0.0272,-19.86075 0.0273,21.16756 0.0409,21.167563 0.0273,-19.956046 0.0273,-20.01049 0.0273,21.126723 0.0273,-20.092168 0.0273,21.085887 0.0272,-20.173841 0.0273,-20.241906 0.0272,21.045046 0.0273,21.03143 0.0273,21.031435 0.0409,-20.3508 0.0273,-20.418869 0.0273,20.976988 0.0273,-20.486938 0.0272,-20.568604 0.0273,20.949758 0.0273,-20.650281 0.0273,62.481746 0.0273,-20.663906 0.0273,-20.745569 0.0273,20.868085 0.0273,-20.813636 0.0273,-20.881694 0.0273,20.827245 0.0409,-20.963371 0.0273,62.590636 0.0273,-20.990597 0.0272,-21.058658 0.0273,20.759175 0.0272,-21.140329 0.0273,-21.208396 0.0273,20.718346 0.0273,20.718339 0.0273,20.69112 0.0272,-21.317292 0.0273,-21.385363 0.0273,20.663893 0.0273,-21.467033 0.0273,-21.535102 0.0273,20.623056 0.0273,20.595834 0.0273,20.595837 0.0273,-21.644007 0.0409,-21.712063 0.0272,20.554992 0.0273,-21.793735 0.0273,20.527766 0.0273,20.514157 0.0273,-21.889027 0.0272,-21.95709 0.0273,20.473318 0.0273,-22.038761 0.0273,20.459702 0.0273,20.432488 0.0273,-22.134058 0.0273,20.405248 0.0273,-22.215722 0.0273,-22.283791 0.0273,20.378029 0.0273,20.350804 0.0273,-22.379076 0.0273,20.337187 0.0272,-22.46075 0.0273,-22.528818 0.0273,20.296355 0.0273,20.282738 0.0273,20.269134 0.0272,-22.637718 0.0273,-22.705781 0.0273,20.228292 0.0273,-22.801071 0.0273,20.214681 0.0273,20.187457 0.0273,-22.882749 0.0273,-22.950808 0.0273,20.146618 0.0273,20.146619 0.0273,-23.059711 0.0273,20.119392 0.0273,-23.127774 0.0273,-23.209444 0.0273,20.078554 0.0273,20.064938 0.0273,-23.291122 0.0273,20.037715 0.0272,-23.386408 0.0273,20.024103 0.0273,19.996887 0.0273,-23.481708 0.0273,19.983268 0.0272,-23.563376 0.0273,-23.631436 0.0273,63.529902 0.0273,-23.658666 0.0273,-23.726715 0.0273,19.901587 0.0273,-23.808399 0.0273,19.874364 0.0273,19.874369 0.0273,-23.903693 0.0273,-23.985362 0.0273,19.833527 0.0273,19.81991 0.0272,-24.080649 0.0136,19.806305 0.0273,-24.16233 0.0272,-24.230388 0.0273,63.76133 0.0273,-24.257627 0.0273,-24.33929 0.0273,19.724626 0.0273,19.711011 0.0273,-24.420963 0.0273,19.68379 0.0273,-24.502644 0.0273,-24.584316 0.0273,63.897453 0.0273,-24.611552 0.0273,-24.679606 0.0272,19.615725 0.0273,19.602113 0.0273,-24.77489 0.0273,19.588498 0.0273,-24.87018 0.0136,-24.924631 0.0273,64.033573 0.0273,-24.965473 0.0272,-25.019919 0.0273,19.506825 0.0273,19.493209 0.0273,-25.128814 0.0273,19.479597 0.0273,-25.210493 0.0273,19.438759 0.0273,19.438769 0.0273,-25.305789 0.0273,-25.387459 0.0273,64.210538 0.0273,-25.414696 0.0136,-25.48274 0.0273,19.3707 0.0273,-25.564424 0.0273,19.343476 0.0272,19.329864 0.0273,-25.659716 0.0273,-25.741384 0.0273,64.34666 0.0273,-25.755002 0.0272,-25.836671 0.0273,19.261798 0.0136,19.248195 0.0273,-25.931972 0.0273,-26.000024 0.0273,64.455566 0.0273,-26.027258 0.0273,-26.108925 0.0273,19.180124 0.0273,19.180129 0.0273,-26.204221 0.0272,19.139286 0.0273,-26.28589 0.0136,19.125673 0.0272,19.112062 0.0273,-26.381179 0.0273,-26.462851 0.0273,64.63252 0.0273,-26.476462 0.0272,-26.571756 0.0273,19.05761 0.0273,19.030388 0.0136,-26.653432 0.0273,-26.735103 0.0273,64.741435 0.0273,-26.748727 0.0273,-26.844006 0.0273,18.975935 0.0273,18.96232 0.0273,-26.939291 0.0136,18.935098 0.0273,-27.020969 0.0273,18.921481 0.0272,18.894259 0.0273,-27.116255 0.0273,18.880648 0.0273,-27.197932 0.0273,18.85342 0.0136,-27.29322 0.0273,18.839808 0.0273,18.826199 0.0273,-27.402122 0.0273,18.798969 0.0273,18.798985 0.0273,-27.497421 0.0136,-27.565472 0.0273,65.095353 0.0273,-27.592699 0.0273,-27.660759 0.0273,18.730909 0.0273,18.71729 0.0273,-27.769657 0.0136,-27.851335 0.0273,65.217861 0.0273,-27.864946 0.0272,-27.946623 0.0273,65.258709 0.0272,-27.960244 0.0273,-28.055523 0.0136,18.622006 0.0273,18.6084 0.0273,-28.137206 0.0273,-28.232487 0.0273,65.394834 0.0273,-28.246108 0.0136,-28.327775 0.0273,65.422053 0.0273,-28.341389 0.0273,-28.423063 0.0273,18.513107 0.0273,18.499492 0.0273,-28.531962 0.0136,18.48588 0.0273,18.472265 0.0273,-28.627247 0.0273,18.445042 0.0273,18.445055 0.0136,-28.72255 0.0273,-28.804217 0.0273,18.404206 0.0272,18.390594 0.0273,-28.899506 0.0272,18.376982 0.0136,18.363365 0.0273,-29.008401 0.0273,18.336144 0.0273,-29.090081 0.0273,18.322532 0.0273,18.308919 0.0136,-29.198982 0.0273,18.295303 0.0273,18.281692 0.0273,-29.294266 0.0273,-29.375946 0.0136,65.884882 0.0273,-29.40317 0.0273,-29.471233 0.0272,65.925713 0.0273,-29.498453 0.0136,-29.580134 0.0272,18.186406 0.0273,18.172785 0.0272,-29.675414 0.0273,18.145568 0.0136,18.159182 0.0272,-29.784326 0.0273,18.118342 0.0273,-29.879609 0.0273,18.118342 0.0136,18.091119 0.0273,-29.974902 0.0273,18.077508 0.0273,18.063886 0.0273,-30.083793 0.0136,-30.165475 0.0273,66.252418 0.0273,-30.179085 0.0272,-30.274375 0.0136,66.29326 0.0273,-30.287989 0.0272,-30.369664 0.0273,17.982219 0.0272,17.968602 0.0136,-30.478564 0.0273,17.954991 0.0272,-30.573851 0.0273,66.429386 0.0273,-30.587468 0.0136,-30.655526 0.0273,66.470224 0.0273,-30.696369 0.0273,-30.764426 0.0136,17.859703 0.0273,17.859704 0.0273,-30.873329 0.0273,17.84609 0.0136,17.818865 0.0273,-30.968616 0.0273,17.805255 0.0273,-31.063905 0.0272,66.647178 0.0136,-31.091123 0.0273,-31.172805 0.0272,17.764416 0.0273,17.7508 0.0136,-31.281706 0.0273,17.737192 0.0273,17.709963 0.0272,-31.376992 0.0136,17.709965 0.0273,-31.485895 0.0273,66.851385 0.0273,-31.499519 0.0136,-31.567569 0.0273,17.641903 0.0273,17.641902 0.0273,-31.676472 0.0136,17.62829 0.0273,17.614672 0.0273,17.601073 0.0272,-31.798989 0.0136,-31.880659 0.0273,67.041948 0.0272,-31.907882 0.0273,-31.975947 0.0136,17.546612 0.0272,17.533003 0.0273,17.533004 0.0273,-32.112075 0.0136,-32.180137 0.0273,67.191692 0.0273,-32.207365 0.0136,-32.289036 0.0273,17.464938 0.0273,17.464937 0.0273,17.45132 0.0136,-32.39793 0.0273,17.424099 0.0273,17.424107 0.0273,-32.506844 0.0136,17.396876 0.0273,17.396878 0.0273,-32.61574 0.0136,17.383262 0.0272,-32.711025 0.0273,67.436723 0.0273,-32.73826 0.0136,-32.819927 0.0273,17.328814 0.0273,17.328812 0.0136,17.301581 0.0273,-32.928823 0.0273,-33.024115 0.0273,67.600068 0.0136,-33.037732 0.0273,-33.133015 0.0273,17.26075 0.0136,17.247136 0.0273,17.233526 0.0273,-33.241918 0.0273,17.219912 0.0136,17.206295 0.0273,-33.350813 0.0273,17.192688 0.0136,17.179077 0.0272,17.179074 0.0273,-33.473336 0.0273,-33.555005 0.0136,67.858711 0.0273,-33.568625 0.0273,17.124625 0.0136,-33.67752 0.0273,17.11101 0.0273,17.097397 0.0136,-33.772804 0.0273,17.083783 0.0273,17.070173 0.0136,-33.881704 0.0273,17.05656 0.0273,-33.990611 0.0273,68.062896 0.0136,-33.99061 0.0273,17.015721 0.0273,-34.099507 0.0136,17.002111 0.0273,16.988495 0.0273,-34.208409 0.0136,16.974885 0.0273,16.961273 0.0272,-34.317309 0.0136,16.94766 0.0273,-34.412599 0.0272,68.280699 0.0136,-34.426215 0.0273,16.906824 0.0272,-34.535114 0.0136,16.893209 0.0273,16.893216 0.0272,-34.644018 0.0136,16.865987 0.0273,16.852363 0.0273,16.852378 0.0136,-34.752911 0.0273,-34.861814 0.0273,68.512105 0.0136,-34.861811 0.0273,16.797923 0.0273,-34.970716 0.0136,16.797922 0.0273,16.770698 0.0273,-35.066003 0.0136,16.757084 0.0273,-35.174903 0.0273,68.675466 0.0136,-35.202133 0.0273,16.729856 0.0273,-35.297416 0.0136,16.716246 0.0273,16.702637 0.0273,-35.419931 0.0136,16.689021 0.0273,16.675408 0.0273,16.675412 0.0136,-35.528834 0.0273,16.648185 0.0273,16.648183 0.0136,-35.63773 0.0273,16.620959 0.0273,-35.746631 0.0136,68.974938 0.0273,-35.760249 0.0273,16.593736 0.0136,-35.869146 0.0273,16.580122 0.0136,16.566506 0.0273,-35.978043 0.0273,16.552894 0.0136,-36.073333 0.0273,69.151903 0.0273,-36.100562 0.0136,16.525671 0.0273,-36.195847 0.0273,69.192738 0.0136,-36.209459 0.0273,-36.304748 0.0136,16.471219 0.0273,16.47122 0.0273,16.457605 0.0136,-36.427256 0.0273,16.443995 0.0273,-36.536162 0.0136,69.383316 0.0273,-36.549778 0.0136,16.403159 0.0273,-36.645061 0.0273,16.389543 0.0136,16.389547 0.0273,-36.767575 0.0273,16.362318 0.0136,16.362321 0.0273,16.348705 0.0136,-36.890087 0.0273,10.45446"
       style="fill:none;stroke:#0072bd;stroke-width:0.17696354px;stroke-linecap:butt;stroke-linejoin:round;stroke-miterlimit:4;stroke-dasharray:none;stroke-opacity:1"
       inkscape:connector-curvature="0" />
  </g>
</svg>
